<?xml version="1.0" encoding="utf-8"?>
<!-- Generator: Adobe Illustrator 19.0.0, SVG Export Plug-In . SVG Version: 6.00 Build 0)  -->
<svg version="1.1" id="Layer_1" xmlns="http://www.w3.org/2000/svg" xmlns:xlink="http://www.w3.org/1999/xlink" x="0px" y="0px"
	 viewBox="0 0 160 260" style="enable-background:new 0 0 160 260;" xml:space="preserve">
<style type="text/css">
	.st0{fill:none;stroke:#000000;stroke-miterlimit:10;}
</style>
<polygon id="XMLID_1402_" class="st0" points="162.5,230.5 165,226.5 162.5,222.5 157.6,222.5 155.1,226.5 157.6,230.5 "/>
<polygon id="XMLID_1394_" class="st0" points="155.2,218.5 157.7,214 155.2,209.5 150.3,209.5 147.8,214 150.3,218.5 "/>
<polygon id="XMLID_1393_" class="st0" points="162.5,213.5 165,209 162.5,204.5 157.6,204.5 155.1,209 157.6,213.5 "/>
<polygon id="XMLID_1392_" class="st0" points="162.5,222.5 165,218 162.5,213.5 157.6,213.5 155.1,218 157.6,222.5 "/>
<polygon id="XMLID_1368_" class="st0" points="147.9,180.5 150.4,176.5 147.9,172.5 142.9,172.5 140.5,176.5 142.9,180.5 "/>
<polygon id="XMLID_1365_" class="st0" points="147.9,204.5 150.4,201 147.9,197.5 142.9,197.5 140.5,201 142.9,204.5 "/>
<polygon id="XMLID_1364_" class="st0" points="147.9,213.5 150.4,209 147.9,204.5 142.9,204.5 140.5,209 142.9,213.5 "/>
<polygon id="XMLID_1363_" class="st0" points="155.2,209.5 157.7,205.5 155.2,201.5 150.3,201.5 147.8,205.5 150.3,209.5 "/>
<polygon id="XMLID_1362_" class="st0" points="155.2,201.5 157.7,197.5 155.2,193.5 150.3,193.5 147.8,197.5 150.3,201.5 "/>
<polygon id="XMLID_1361_" class="st0" points="162.5,197.5 165,193.5 162.5,189.5 157.6,189.5 155.1,193.5 157.6,197.5 "/>
<polygon id="XMLID_1360_" class="st0" points="162.5,204.5 165,201 162.5,197.5 157.6,197.5 155.1,201 157.6,204.5 "/>
<polygon id="XMLID_1356_" class="st0" points="147.9,197.5 150.4,193.5 147.9,189.5 142.9,189.5 140.5,193.5 142.9,197.5 "/>
<polygon id="XMLID_1355_" class="st0" points="147.9,189.5 150.4,185 147.9,180.5 142.9,180.5 140.5,185 142.9,189.5 "/>
<polygon id="XMLID_1354_" class="st0" points="155.2,185.5 157.7,181 155.2,176.5 150.3,176.5 147.8,181 150.3,185.5 "/>
<polygon id="XMLID_1353_" class="st0" points="155.2,193.5 157.7,189.5 155.2,185.5 150.3,185.5 147.8,189.5 150.3,193.5 "/>
<polygon id="XMLID_1352_" class="st0" points="162.5,189.5 165,185 162.5,180.5 157.6,180.5 155.1,185 157.6,189.5 "/>
<polygon id="XMLID_1349_" class="st0" points="147.9,247.5 150.4,243 147.9,238.5 142.9,238.5 140.5,243 142.9,247.5 "/>
<polygon id="XMLID_1348_" class="st0" points="147.9,238.5 150.4,234.5 147.9,230.5 142.9,230.5 140.5,234.5 142.9,238.5 "/>
<polygon id="XMLID_1347_" class="st0" points="155.2,235.5 157.7,231 155.2,226.5 150.3,226.5 147.8,231 150.3,235.5 "/>
<polygon id="XMLID_1346_" class="st0" points="155.2,243.5 157.7,239.5 155.2,235.5 150.3,235.5 147.8,239.5 150.3,243.5 "/>
<polygon id="XMLID_1345_" class="st0" points="162.5,238.5 165,234.5 162.5,230.5 157.6,230.5 155.1,234.5 157.6,238.5 "/>
<polygon id="XMLID_1342_" class="st0" points="147.9,222.5 150.4,218 147.9,213.5 142.9,213.5 140.5,218 142.9,222.5 "/>
<polygon id="XMLID_1341_" class="st0" points="147.9,230.5 150.4,226.5 147.9,222.5 142.9,222.5 140.5,226.5 142.9,230.5 "/>
<polygon id="XMLID_1340_" class="st0" points="155.2,226.5 157.7,222.5 155.2,218.5 150.3,218.5 147.8,222.5 150.3,226.5 "/>
<polygon id="XMLID_1338_" class="st0" points="162.5,265.5 165,260.5 162.5,255.5 157.6,255.5 155.1,260.5 157.6,265.5 "/>
<polygon id="XMLID_1331_" class="st0" points="147.9,255.5 150.4,251 147.9,246.5 142.9,246.5 140.5,251 142.9,255.5 "/>
<polygon id="XMLID_1330_" class="st0" points="155.2,251.5 157.7,247 155.2,242.5 150.3,242.5 147.8,247 150.3,251.5 "/>
<polygon id="XMLID_1329_" class="st0" points="155.2,260.5 157.7,256 155.2,251.5 150.3,251.5 147.8,256 150.3,260.5 "/>
<polygon id="XMLID_1328_" class="st0" points="162.5,255.5 165,251 162.5,246.5 157.6,246.5 155.1,251 157.6,255.5 "/>
<polygon id="XMLID_1327_" class="st0" points="162.5,246.5 165,242.5 162.5,238.5 157.6,238.5 155.1,242.5 157.6,246.5 "/>
<polygon id="XMLID_1315_" class="st0" points="147.9,265.5 150.4,260.5 147.9,255.5 142.9,255.5 140.5,260.5 142.9,265.5 "/>
<polygon id="XMLID_1081_" class="st0" points="147.9,172.5 150.4,168.5 147.9,164.5 142.9,164.5 140.5,168.5 142.9,172.5 "/>
<polygon id="XMLID_1080_" class="st0" points="155.2,168.5 157.7,164.5 155.2,160.5 150.3,160.5 147.8,164.5 150.3,168.5 "/>
<polygon id="XMLID_1079_" class="st0" points="155.2,176.5 157.7,172.5 155.2,168.5 150.3,168.5 147.8,172.5 150.3,176.5 "/>
<polygon id="XMLID_1078_" class="st0" points="162.5,172.5 165,168.5 162.5,164.5 157.6,164.5 155.1,168.5 157.6,172.5 "/>
<polygon id="XMLID_1077_" class="st0" points="162.5,164.5 165,160.5 162.5,156.5 157.6,156.5 155.1,160.5 157.6,164.5 "/>
<polygon id="XMLID_1072_" class="st0" points="147.9,156.5 150.4,151.5 147.9,146.5 142.9,146.5 140.5,151.5 142.9,156.5 "/>
<polygon id="XMLID_1071_" class="st0" points="147.9,164.5 150.4,160.5 147.9,156.5 142.9,156.5 140.5,160.5 142.9,164.5 "/>
<polygon id="XMLID_1070_" class="st0" points="155.2,160.5 157.7,156 155.2,151.5 150.3,151.5 147.8,156 150.3,160.5 "/>
<polygon id="XMLID_1069_" class="st0" points="162.5,156.5 165,151.5 162.5,146.5 157.6,146.5 155.1,151.5 157.6,156.5 "/>
<polygon id="XMLID_1060_" class="st0" points="162.5,180.5 165,176.5 162.5,172.5 157.6,172.5 155.1,176.5 157.6,180.5 "/>
<polygon id="XMLID_1044_" class="st0" points="162.5,71.5 165,67 162.5,62.5 157.6,62.5 155.1,67 157.6,71.5 "/>
<polygon id="XMLID_1020_" class="st0" points="147.9,28.5 150.4,24.5 147.9,20.5 142.9,20.5 140.5,24.5 142.9,28.5 "/>
<polygon id="XMLID_1019_" class="st0" points="147.9,37.5 150.4,33 147.9,28.5 142.9,28.5 140.5,33 142.9,37.5 "/>
<polygon id="XMLID_1018_" class="st0" points="155.2,33.5 157.7,29 155.2,24.5 150.3,24.5 147.8,29 150.3,33.5 "/>
<polygon id="XMLID_1017_" class="st0" points="147.9,20.5 150.4,17 147.9,13.5 142.9,13.5 140.5,17 142.9,20.5 "/>
<polygon id="XMLID_1016_" class="st0" points="147.9,62.5 150.4,58.5 147.9,54.5 142.9,54.5 140.5,58.5 142.9,62.5 "/>
<polygon id="XMLID_1015_" class="st0" points="155.2,58.5 157.7,54 155.2,49.5 150.3,49.5 147.8,54 150.3,58.5 "/>
<polygon id="XMLID_1014_" class="st0" points="155.2,67.5 157.7,63 155.2,58.5 150.3,58.5 147.8,63 150.3,67.5 "/>
<polygon id="XMLID_1013_" class="st0" points="162.5,62.5 165,58.5 162.5,54.5 157.6,54.5 155.1,58.5 157.6,62.5 "/>
<polygon id="XMLID_1012_" class="st0" points="162.5,54.5 165,50 162.5,45.5 157.6,45.5 155.1,50 157.6,54.5 "/>
<polygon id="XMLID_1008_" class="st0" points="147.9,45.5 150.4,41 147.9,36.5 142.9,36.5 140.5,41 142.9,45.5 "/>
<polygon id="XMLID_1007_" class="st0" points="147.9,54.5 150.4,50 147.9,45.5 142.9,45.5 140.5,50 142.9,54.5 "/>
<polygon id="XMLID_1006_" class="st0" points="155.2,49.5 157.7,45 155.2,40.5 150.3,40.5 147.8,45 150.3,49.5 "/>
<polygon id="XMLID_1005_" class="st0" points="155.2,40.5 157.7,37 155.2,33.5 150.3,33.5 147.8,37 150.3,40.5 "/>
<polygon id="XMLID_1004_" class="st0" points="162.5,36.5 165,32.5 162.5,28.5 157.6,28.5 155.1,32.5 157.6,36.5 "/>
<polygon id="XMLID_1003_" class="st0" points="162.5,45.5 165,41 162.5,36.5 157.6,36.5 155.1,41 157.6,45.5 "/>
<polygon id="XMLID_1001_" class="st0" points="147.9,95.5 150.4,91.5 147.9,87.5 142.9,87.5 140.5,91.5 142.9,95.5 "/>
<polygon id="XMLID_1000_" class="st0" points="147.9,105.5 150.4,100.5 147.9,95.5 142.9,95.5 140.5,100.5 142.9,105.5 "/>
<polygon id="XMLID_999_" class="st0" points="155.2,100.5 157.7,96 155.2,91.5 150.3,91.5 147.8,96 150.3,100.5 "/>
<polygon id="XMLID_998_" class="st0" points="155.2,91.5 157.7,88 155.2,84.5 150.3,84.5 147.8,88 150.3,91.5 "/>
<polygon id="XMLID_997_" class="st0" points="162.5,87.5 165,84 162.5,80.5 157.6,80.5 155.1,84 157.6,87.5 "/>
<polygon id="XMLID_996_" class="st0" points="162.5,95.5 165,91.5 162.5,87.5 157.6,87.5 155.1,91.5 157.6,95.5 "/>
<polygon id="XMLID_994_" class="st0" points="147.9,87.5 150.4,84 147.9,80.5 142.9,80.5 140.5,84 142.9,87.5 "/>
<polygon id="XMLID_993_" class="st0" points="147.9,80.5 150.4,76 147.9,71.5 142.9,71.5 140.5,76 142.9,80.5 "/>
<polygon id="XMLID_992_" class="st0" points="155.2,75.5 157.7,71.5 155.2,67.5 150.3,67.5 147.8,71.5 150.3,75.5 "/>
<polygon id="XMLID_991_" class="st0" points="155.2,84.5 157.7,80 155.2,75.5 150.3,75.5 147.8,80 150.3,84.5 "/>
<polygon id="XMLID_990_" class="st0" points="162.5,80.5 165,76 162.5,71.5 157.6,71.5 155.1,76 157.6,80.5 "/>
<polygon id="XMLID_989_" class="st0" points="162.5,121.5 165,117.5 162.5,113.5 157.6,113.5 155.1,117.5 157.6,121.5 "/>
<polygon id="XMLID_981_" class="st0" points="155.2,108.5 157.7,104.5 155.2,100.5 150.3,100.5 147.8,104.5 150.3,108.5 "/>
<polygon id="XMLID_980_" class="st0" points="162.5,104.5 165,100 162.5,95.5 157.6,95.5 155.1,100 157.6,104.5 "/>
<polygon id="XMLID_979_" class="st0" points="162.5,113.5 165,109 162.5,104.5 157.6,104.5 155.1,109 157.6,113.5 "/>
<polygon id="XMLID_973_" class="st0" points="147.9,71.5 150.4,67 147.9,62.5 142.9,62.5 140.5,67 142.9,71.5 "/>
<polygon id="XMLID_972_" class="st0" points="147.9,137.5 150.4,133 147.9,128.5 142.9,128.5 140.5,133 142.9,137.5 "/>
<polygon id="XMLID_971_" class="st0" points="147.9,128.5 150.4,125 147.9,121.5 142.9,121.5 140.5,125 142.9,128.5 "/>
<polygon id="XMLID_970_" class="st0" points="155.2,125.5 157.7,121.5 155.2,117.5 150.3,117.5 147.8,121.5 150.3,125.5 "/>
<polygon id="XMLID_969_" class="st0" points="155.2,132.5 157.7,129 155.2,125.5 150.3,125.5 147.8,129 150.3,132.5 "/>
<polygon id="XMLID_968_" class="st0" points="162.5,128.5 165,125 162.5,121.5 157.6,121.5 155.1,125 157.6,128.5 "/>
<polygon id="XMLID_967_" class="st0" points="147.9,113.5 150.4,109 147.9,104.5 142.9,104.5 140.5,109 142.9,113.5 "/>
<polygon id="XMLID_966_" class="st0" points="147.9,121.5 150.4,117.5 147.9,113.5 142.9,113.5 140.5,117.5 142.9,121.5 "/>
<polygon id="XMLID_965_" class="st0" points="155.2,117.5 157.7,113 155.2,108.5 150.3,108.5 147.8,113 150.3,117.5 "/>
<polygon id="XMLID_368_" class="st0" points="147.9,146.5 150.4,142 147.9,137.5 142.9,137.5 140.5,142 142.9,146.5 "/>
<polygon id="XMLID_362_" class="st0" points="155.2,141.5 157.7,137 155.2,132.5 150.3,132.5 147.8,137 150.3,141.5 "/>
<polygon id="XMLID_361_" class="st0" points="155.2,151.5 157.7,146.5 155.2,141.5 150.3,141.5 147.8,146.5 150.3,151.5 "/>
<polygon id="XMLID_360_" class="st0" points="162.5,146.5 165,142 162.5,137.5 157.6,137.5 155.1,142 157.6,146.5 "/>
<polygon id="XMLID_359_" class="st0" points="162.5,137.5 165,133 162.5,128.5 157.6,128.5 155.1,133 157.6,137.5 "/>
<polygon id="XMLID_256_" class="st0" points="155.2,24.5 157.7,20 155.2,15.5 150.3,15.5 147.8,20 150.3,24.5 "/>
<polygon id="XMLID_255_" class="st0" points="162.5,20.5 165,17 162.5,13.5 157.6,13.5 155.1,17 157.6,20.5 "/>
<polygon id="XMLID_254_" class="st0" points="162.5,28.5 165,24.5 162.5,20.5 157.6,20.5 155.1,24.5 157.6,28.5 "/>
<polygon id="XMLID_239_" class="st0" points="147.9,13.5 150.4,9 147.9,4.5 142.9,4.5 140.5,9 142.9,13.5 "/>
<polygon id="XMLID_238_" class="st0" points="155.2,8.5 157.7,4.5 155.2,0.5 150.3,0.5 147.8,4.5 150.3,8.5 "/>
<polygon id="XMLID_237_" class="st0" points="155.2,15.5 157.7,12 155.2,8.5 150.3,8.5 147.8,12 150.3,15.5 "/>
<polygon id="XMLID_236_" class="st0" points="162.5,13.5 165,9 162.5,4.5 157.6,4.5 155.1,9 157.6,13.5 "/>
<polygon id="XMLID_852_" class="st0" points="16.3,232.5 18.8,228 16.3,223.5 11.4,223.5 8.9,228 11.4,232.5 "/>
<polygon id="XMLID_851_" class="st0" points="23.6,227.5 26.1,223 23.6,218.5 18.7,218.5 16.2,223 18.7,227.5 "/>
<polygon id="XMLID_850_" class="st0" points="23.6,235.5 26.1,231.5 23.6,227.5 18.7,227.5 16.2,231.5 18.7,235.5 "/>
<polygon id="XMLID_849_" class="st0" points="30.9,232.5 33.4,228 30.9,223.5 26,223.5 23.5,228 26,232.5 "/>
<polygon id="XMLID_848_" class="st0" points="30.9,223.5 33.4,218.5 30.9,213.5 26,213.5 23.5,218.5 26,223.5 "/>
<polygon id="XMLID_847_" class="st0" points="38.2,218.5 40.7,214 38.2,209.5 33.3,209.5 30.8,214 33.3,218.5 "/>
<polygon id="XMLID_846_" class="st0" points="38.2,227.5 40.7,223 38.2,218.5 33.3,218.5 30.8,223 33.3,227.5 "/>
<polygon id="XMLID_845_" class="st0" points="45.5,223.5 48,218.5 45.5,213.5 40.6,213.5 38.1,218.5 40.6,223.5 "/>
<polygon id="XMLID_844_" class="st0" points="9,218.5 11.5,214 9,209.5 4,209.5 1.6,214 4,218.5 "/>
<polygon id="XMLID_843_" class="st0" points="16.3,213.5 18.8,209 16.3,204.5 11.4,204.5 8.9,209 11.4,213.5 "/>
<polygon id="XMLID_842_" class="st0" points="16.3,223.5 18.8,218.5 16.3,213.5 11.4,213.5 8.9,218.5 11.4,223.5 "/>
<polygon id="XMLID_841_" class="st0" points="23.6,218.5 26.1,214 23.6,209.5 18.7,209.5 16.2,214 18.7,218.5 "/>
<polygon id="XMLID_840_" class="st0" points="23.6,209.5 26.1,205.5 23.6,201.5 18.7,201.5 16.2,205.5 18.7,209.5 "/>
<polygon id="XMLID_839_" class="st0" points="30.9,204.5 33.4,201 30.9,197.5 26,197.5 23.5,201 26,204.5 "/>
<polygon id="XMLID_838_" class="st0" points="30.9,213.5 33.4,209 30.9,204.5 26,204.5 23.5,209 26,213.5 "/>
<polygon id="XMLID_837_" class="st0" points="38.2,209.5 40.7,205.5 38.2,201.5 33.3,201.5 30.8,205.5 33.3,209.5 "/>
<polygon id="XMLID_836_" class="st0" points="38.2,251.5 40.7,247.5 38.2,243.5 33.3,243.5 30.8,247.5 33.3,251.5 "/>
<polygon id="XMLID_835_" class="st0" points="45.5,247.5 48,243 45.5,238.5 40.6,238.5 38.1,243 40.6,247.5 "/>
<polygon id="XMLID_834_" class="st0" points="45.5,256.5 48,252 45.5,247.5 40.6,247.5 38.1,252 40.6,256.5 "/>
<polygon id="XMLID_833_" class="st0" points="52.9,251.5 55.3,247.5 52.9,243.5 47.9,243.5 45.4,247.5 47.9,251.5 "/>
<polygon id="XMLID_832_" class="st0" points="52.9,243.5 55.3,239.5 52.9,235.5 47.9,235.5 45.4,239.5 47.9,243.5 "/>
<polygon id="XMLID_831_" class="st0" points="60.2,238.5 62.6,235 60.2,231.5 55.2,231.5 52.7,235 55.2,238.5 "/>
<polygon id="XMLID_830_" class="st0" points="60.2,247.5 62.6,243 60.2,238.5 55.2,238.5 52.7,243 55.2,247.5 "/>
<polygon id="XMLID_829_" class="st0" points="67.5,243.5 70,239.5 67.5,235.5 62.5,235.5 60.1,239.5 62.5,243.5 "/>
<polygon id="XMLID_828_" class="st0" points="30.9,238.5 33.4,235 30.9,231.5 26,231.5 23.5,235 26,238.5 "/>
<polygon id="XMLID_827_" class="st0" points="38.2,235.5 40.7,231 38.2,226.5 33.3,226.5 30.8,231 33.3,235.5 "/>
<polygon id="XMLID_826_" class="st0" points="38.2,243.5 40.7,239.5 38.2,235.5 33.3,235.5 30.8,239.5 33.3,243.5 "/>
<polygon id="XMLID_825_" class="st0" points="45.5,238.5 48,235 45.5,231.5 40.6,231.5 38.1,235 40.6,238.5 "/>
<polygon id="XMLID_824_" class="st0" points="45.5,231.5 48,227.5 45.5,223.5 40.6,223.5 38.1,227.5 40.6,231.5 "/>
<polygon id="XMLID_823_" class="st0" points="52.9,226.5 55.3,222.5 52.9,218.5 47.9,218.5 45.4,222.5 47.9,226.5 "/>
<polygon id="XMLID_822_" class="st0" points="52.9,235.5 55.3,231 52.9,226.5 47.9,226.5 45.4,231 47.9,235.5 "/>
<polygon id="XMLID_821_" class="st0" points="60.2,231.5 62.6,227.5 60.2,223.5 55.2,223.5 52.7,227.5 55.2,231.5 "/>
<polygon id="XMLID_820_" class="st0" points="140.6,176.5 143.1,172.5 140.6,168.5 135.6,168.5 133.2,172.5 135.6,176.5 "/>
<polygon id="XMLID_819_" class="st0" points="140.6,185.5 143.1,181 140.6,176.5 135.6,176.5 133.2,181 135.6,185.5 "/>
<polygon id="XMLID_818_" class="st0" points="1.7,180.5 4.2,176.5 1.7,172.5 -3.3,172.5 -5.7,176.5 -3.3,180.5 "/>
<polygon id="XMLID_817_" class="st0" points="140.6,168.5 143.1,164.5 140.6,160.5 135.6,160.5 133.2,164.5 135.6,168.5 "/>
<polygon id="XMLID_816_" class="st0" points="140.6,209.5 143.1,205.5 140.6,201.5 135.6,201.5 133.2,205.5 135.6,209.5 "/>
<polygon id="XMLID_815_" class="st0" points="1.7,204.5 4.2,201 1.7,197.5 -3.3,197.5 -5.7,201 -3.3,204.5 "/>
<polygon id="XMLID_814_" class="st0" points="1.7,213.5 4.2,209 1.7,204.5 -3.3,204.5 -5.7,209 -3.3,213.5 "/>
<polygon id="XMLID_813_" class="st0" points="9,209.5 11.5,205.5 9,201.5 4,201.5 1.6,205.5 4,209.5 "/>
<polygon id="XMLID_812_" class="st0" points="9,201.5 11.5,197.5 9,193.5 4,193.5 1.6,197.5 4,201.5 "/>
<polygon id="XMLID_811_" class="st0" points="16.3,197.5 18.8,193.5 16.3,189.5 11.4,189.5 8.9,193.5 11.4,197.5 "/>
<polygon id="XMLID_810_" class="st0" points="16.3,204.5 18.8,201 16.3,197.5 11.4,197.5 8.9,201 11.4,204.5 "/>
<polygon id="XMLID_809_" class="st0" points="23.6,201.5 26.1,197.5 23.6,193.5 18.7,193.5 16.2,197.5 18.7,201.5 "/>
<polygon id="XMLID_808_" class="st0" points="140.6,193.5 143.1,189.5 140.6,185.5 135.6,185.5 133.2,189.5 135.6,193.5 "/>
<polygon id="XMLID_807_" class="st0" points="140.6,201.5 143.1,197.5 140.6,193.5 135.6,193.5 133.2,197.5 135.6,201.5 "/>
<polygon id="XMLID_806_" class="st0" points="1.7,197.5 4.2,193.5 1.7,189.5 -3.3,189.5 -5.7,193.5 -3.3,197.5 "/>
<polygon id="XMLID_805_" class="st0" points="1.7,189.5 4.2,185 1.7,180.5 -3.3,180.5 -5.7,185 -3.3,189.5 "/>
<polygon id="XMLID_804_" class="st0" points="9,185.5 11.5,181 9,176.5 4,176.5 1.6,181 4,185.5 "/>
<polygon id="XMLID_803_" class="st0" points="9,193.5 11.5,189.5 9,185.5 4,185.5 1.6,189.5 4,193.5 "/>
<polygon id="XMLID_802_" class="st0" points="16.3,189.5 18.8,185 16.3,180.5 11.4,180.5 8.9,185 11.4,189.5 "/>
<polygon id="XMLID_801_" class="st0" points="140.6,243.5 143.1,239.5 140.6,235.5 135.6,235.5 133.2,239.5 135.6,243.5 "/>
<polygon id="XMLID_800_" class="st0" points="140.6,251.5 143.1,247.5 140.6,243.5 135.6,243.5 133.2,247.5 135.6,251.5 "/>
<polygon id="XMLID_799_" class="st0" points="1.7,247.5 4.2,243.5 1.7,239.5 -3.3,239.5 -5.7,243.5 -3.3,247.5 "/>
<polygon id="XMLID_798_" class="st0" points="1.7,239.5 4.2,236 1.7,232.5 -3.3,232.5 -5.7,236 -3.3,239.5 "/>
<polygon id="XMLID_797_" class="st0" points="9,235.5 11.5,231.5 9,227.5 4,227.5 1.6,231.5 4,235.5 "/>
<polygon id="XMLID_796_" class="st0" points="9,244.5 11.5,240 9,235.5 4,235.5 1.6,240 4,244.5 "/>
<polygon id="XMLID_795_" class="st0" points="16.3,239.5 18.8,236 16.3,232.5 11.4,232.5 8.9,236 11.4,239.5 "/>
<polygon id="XMLID_794_" class="st0" points="140.6,235.5 143.1,231 140.6,226.5 135.6,226.5 133.2,231 135.6,235.5 "/>
<polygon id="XMLID_793_" class="st0" points="140.6,226.5 143.1,222.5 140.6,218.5 135.6,218.5 133.2,222.5 135.6,226.5 "/>
<polygon id="XMLID_792_" class="st0" points="1.7,223.5 4.2,218.5 1.7,213.5 -3.3,213.5 -5.7,218.5 -3.3,223.5 "/>
<polygon id="XMLID_791_" class="st0" points="1.7,232.5 4.2,228 1.7,223.5 -3.3,223.5 -5.7,228 -3.3,232.5 "/>
<polygon id="XMLID_790_" class="st0" points="9,227.5 11.5,223 9,218.5 4,218.5 1.6,223 4,227.5 "/>
<polygon id="XMLID_788_" class="st0" points="16.3,265.5 18.8,261 16.3,256.5 11.4,256.5 8.9,261 11.4,265.5 "/>
<polygon id="XMLID_785_" class="st0" points="23.6,261.5 26.1,256.5 23.6,251.5 18.7,251.5 16.2,256.5 18.7,261.5 "/>
<polygon id="XMLID_784_" class="st0" points="30.9,256.5 33.4,252 30.9,247.5 26,247.5 23.5,252 26,256.5 "/>
<polygon id="XMLID_783_" class="st0" points="30.9,265.5 33.4,261 30.9,256.5 26,256.5 23.5,261 26,265.5 "/>
<polygon id="XMLID_782_" class="st0" points="38.2,261.5 40.7,256.5 38.2,251.5 33.3,251.5 30.8,256.5 33.3,261.5 "/>
<polygon id="XMLID_781_" class="st0" points="1.7,256.5 4.2,252 1.7,247.5 -3.3,247.5 -5.7,252 -3.3,256.5 "/>
<polygon id="XMLID_780_" class="st0" points="9,251.5 11.5,247.5 9,243.5 4,243.5 1.6,247.5 4,251.5 "/>
<polygon id="XMLID_779_" class="st0" points="9,261.5 11.5,256.5 9,251.5 4,251.5 1.6,256.5 4,261.5 "/>
<polygon id="XMLID_778_" class="st0" points="16.3,256.5 18.8,252 16.3,247.5 11.4,247.5 8.9,252 11.4,256.5 "/>
<polygon id="XMLID_777_" class="st0" points="16.3,247.5 18.8,243 16.3,238.5 11.4,238.5 8.9,243 11.4,247.5 "/>
<polygon id="XMLID_776_" class="st0" points="23.6,243.5 26.1,239.5 23.6,235.5 18.7,235.5 16.2,239.5 18.7,243.5 "/>
<polygon id="XMLID_775_" class="st0" points="23.6,251.5 26.1,247.5 23.6,243.5 18.7,243.5 16.2,247.5 18.7,251.5 "/>
<polygon id="XMLID_774_" class="st0" points="30.9,247.5 33.4,243 30.9,238.5 26,238.5 23.5,243 26,247.5 "/>
<polygon id="XMLID_773_" class="st0" points="140.6,218.5 143.1,214 140.6,209.5 135.6,209.5 133.2,214 135.6,218.5 "/>
<polygon id="XMLID_767_" class="st0" points="140.6,260.5 143.1,256 140.6,251.5 135.6,251.5 133.2,256 135.6,260.5 "/>
<polygon id="XMLID_765_" class="st0" points="1.7,265.5 4.2,261 1.7,256.5 -3.3,256.5 -5.7,261 -3.3,265.5 "/>
<polygon id="XMLID_764_" class="st0" points="118.7,238.5 121.1,235 118.7,231.5 113.7,231.5 111.2,235 113.7,238.5 "/>
<polygon id="XMLID_763_" class="st0" points="126,235.5 128.4,231 126,226.5 121,226.5 118.5,231 121,235.5 "/>
<polygon id="XMLID_762_" class="st0" points="126,243.5 128.4,239.5 126,235.5 121,235.5 118.5,239.5 121,243.5 "/>
<polygon id="XMLID_761_" class="st0" points="133.3,238.5 135.8,235 133.3,231.5 128.3,231.5 125.9,235 128.3,238.5 "/>
<polygon id="XMLID_760_" class="st0" points="133.3,231.5 135.8,227.5 133.3,223.5 128.3,223.5 125.9,227.5 128.3,231.5 "/>
<polygon id="XMLID_759_" class="st0" points="111.3,226.5 113.8,222.5 111.3,218.5 106.4,218.5 103.9,222.5 106.4,226.5 "/>
<polygon id="XMLID_758_" class="st0" points="118.7,223.5 121.1,218.5 118.7,213.5 113.7,213.5 111.2,218.5 113.7,223.5 "/>
<polygon id="XMLID_757_" class="st0" points="118.7,231.5 121.1,227.5 118.7,223.5 113.7,223.5 111.2,227.5 113.7,231.5 "/>
<polygon id="XMLID_756_" class="st0" points="126,226.5 128.4,222.5 126,218.5 121,218.5 118.5,222.5 121,226.5 "/>
<polygon id="XMLID_755_" class="st0" points="126,218.5 128.4,214 126,209.5 121,209.5 118.5,214 121,218.5 "/>
<polygon id="XMLID_754_" class="st0" points="133.3,213.5 135.8,209 133.3,204.5 128.3,204.5 125.9,209 128.3,213.5 "/>
<polygon id="XMLID_753_" class="st0" points="133.3,223.5 135.8,218.5 133.3,213.5 128.3,213.5 125.9,218.5 128.3,223.5 "/>
<polygon id="XMLID_752_" class="st0" points="133.3,247.5 135.8,243 133.3,238.5 128.3,238.5 125.9,243 128.3,247.5 "/>
<polygon id="XMLID_747_" class="st0" points="89.4,256.5 91.9,252 89.4,247.5 84.5,247.5 82,252 84.5,256.5 "/>
<polygon id="XMLID_746_" class="st0" points="96.7,251.5 99.2,247.5 96.7,243.5 91.8,243.5 89.3,247.5 91.8,251.5 "/>
<polygon id="XMLID_745_" class="st0" points="96.7,261.5 99.2,256.5 96.7,251.5 91.8,251.5 89.3,256.5 91.8,261.5 "/>
<polygon id="XMLID_744_" class="st0" points="104,256.5 106.5,252 104,247.5 99.1,247.5 96.6,252 99.1,256.5 "/>
<polygon id="XMLID_743_" class="st0" points="104,247.5 106.5,243 104,238.5 99.1,238.5 96.6,243 99.1,247.5 "/>
<polygon id="XMLID_742_" class="st0" points="111.3,243.5 113.8,239.5 111.3,235.5 106.4,235.5 103.9,239.5 106.4,243.5 "/>
<polygon id="XMLID_741_" class="st0" points="111.3,251.5 113.8,247.5 111.3,243.5 106.4,243.5 103.9,247.5 106.4,251.5 "/>
<polygon id="XMLID_740_" class="st0" points="118.7,247.5 121.1,243 118.7,238.5 113.7,238.5 111.2,243 113.7,247.5 "/>
<polygon id="XMLID_739_" class="st0" points="82.1,243.5 84.6,239.5 82.1,235.5 77.2,235.5 74.7,239.5 77.2,243.5 "/>
<polygon id="XMLID_738_" class="st0" points="89.4,238.5 91.9,235 89.4,231.5 84.5,231.5 82,235 84.5,238.5 "/>
<polygon id="XMLID_737_" class="st0" points="89.4,247.5 91.9,243 89.4,238.5 84.5,238.5 82,243 84.5,247.5 "/>
<polygon id="XMLID_736_" class="st0" points="96.7,243.5 99.2,239.5 96.7,235.5 91.8,235.5 89.3,239.5 91.8,243.5 "/>
<polygon id="XMLID_735_" class="st0" points="96.7,235.5 99.2,231 96.7,226.5 91.8,226.5 89.3,231 91.8,235.5 "/>
<polygon id="XMLID_734_" class="st0" points="104,231.5 106.5,227.5 104,223.5 99.1,223.5 96.6,227.5 99.1,231.5 "/>
<polygon id="XMLID_733_" class="st0" points="104,238.5 106.5,235 104,231.5 99.1,231.5 96.6,235 99.1,238.5 "/>
<polygon id="XMLID_732_" class="st0" points="111.3,235.5 113.8,231 111.3,226.5 106.4,226.5 103.9,231 106.4,235.5 "/>
<polygon id="XMLID_726_" class="st0" points="133.3,265.5 135.8,261 133.3,256.5 128.3,256.5 125.9,261 128.3,265.5 "/>
<polygon id="XMLID_724_" class="st0" points="104,265.5 106.5,261 104,256.5 99.1,256.5 96.6,261 99.1,265.5 "/>
<polygon id="XMLID_723_" class="st0" points="111.3,260.5 113.8,256 111.3,251.5 106.4,251.5 103.9,256 106.4,260.5 "/>
<polygon id="XMLID_721_" class="st0" points="118.7,265.5 121.1,261 118.7,256.5 113.7,256.5 111.2,261 113.7,265.5 "/>
<polygon id="XMLID_720_" class="st0" points="118.7,256.5 121.1,252 118.7,247.5 113.7,247.5 111.2,252 113.7,256.5 "/>
<polygon id="XMLID_719_" class="st0" points="126,251.5 128.4,247.5 126,243.5 121,243.5 118.5,247.5 121,251.5 "/>
<polygon id="XMLID_718_" class="st0" points="126,260.5 128.4,256 126,251.5 121,251.5 118.5,256 121,260.5 "/>
<polygon id="XMLID_717_" class="st0" points="133.3,256.5 135.8,252 133.3,247.5 128.3,247.5 125.9,252 128.3,256.5 "/>
<polygon id="XMLID_716_" class="st0" points="133.3,164.5 135.8,160.5 133.3,156.5 128.3,156.5 125.9,160.5 128.3,164.5 "/>
<polygon id="XMLID_714_" class="st0" points="133.3,156.5 135.8,151.5 133.3,146.5 128.3,146.5 125.9,151.5 128.3,156.5 "/>
<polygon id="XMLID_705_" class="st0" points="74.8,265.5 77.3,261 74.8,256.5 69.8,256.5 67.4,261 69.8,265.5 "/>
<polygon id="XMLID_704_" class="st0" points="82.1,261.5 84.6,256.5 82.1,251.5 77.2,251.5 74.7,256.5 77.2,261.5 "/>
<polygon id="XMLID_702_" class="st0" points="89.4,265.5 91.9,261 89.4,256.5 84.5,256.5 82,261 84.5,265.5 "/>
<polygon id="XMLID_701_" class="st0" points="52.9,261.5 55.3,256.5 52.9,251.5 47.9,251.5 45.4,256.5 47.9,261.5 "/>
<polygon id="XMLID_700_" class="st0" points="60.2,256.5 62.6,252 60.2,247.5 55.2,247.5 52.7,252 55.2,256.5 "/>
<polygon id="XMLID_699_" class="st0" points="60.2,265.5 62.6,261 60.2,256.5 55.2,256.5 52.7,261 55.2,265.5 "/>
<polygon id="XMLID_698_" class="st0" points="67.5,261.5 70,256.5 67.5,251.5 62.5,251.5 60.1,256.5 62.5,261.5 "/>
<polygon id="XMLID_697_" class="st0" points="67.5,251.5 70,247.5 67.5,243.5 62.5,243.5 60.1,247.5 62.5,251.5 "/>
<polygon id="XMLID_696_" class="st0" points="74.8,247.5 77.3,243 74.8,238.5 69.8,238.5 67.4,243 69.8,247.5 "/>
<polygon id="XMLID_695_" class="st0" points="74.8,256.5 77.3,252 74.8,247.5 69.8,247.5 67.4,252 69.8,256.5 "/>
<polygon id="XMLID_694_" class="st0" points="82.1,251.5 84.6,247.5 82.1,243.5 77.2,243.5 74.7,247.5 77.2,251.5 "/>
<polygon id="XMLID_677_" class="st0" points="104,180.5 106.5,176.5 104,172.5 99.1,172.5 96.6,176.5 99.1,180.5 "/>
<polygon id="XMLID_676_" class="st0" points="111.3,176.5 113.8,172.5 111.3,168.5 106.4,168.5 103.9,172.5 106.4,176.5 "/>
<polygon id="XMLID_675_" class="st0" points="111.3,185.5 113.8,181 111.3,176.5 106.4,176.5 103.9,181 106.4,185.5 "/>
<polygon id="XMLID_674_" class="st0" points="118.7,180.5 121.1,176.5 118.7,172.5 113.7,172.5 111.2,176.5 113.7,180.5 "/>
<polygon id="XMLID_673_" class="st0" points="118.7,172.5 121.1,168.5 118.7,164.5 113.7,164.5 111.2,168.5 113.7,172.5 "/>
<polygon id="XMLID_672_" class="st0" points="126,168.5 128.4,164.5 126,160.5 121,160.5 118.5,164.5 121,168.5 "/>
<polygon id="XMLID_671_" class="st0" points="126,176.5 128.4,172.5 126,168.5 121,168.5 118.5,172.5 121,176.5 "/>
<polygon id="XMLID_670_" class="st0" points="133.3,172.5 135.8,168.5 133.3,164.5 128.3,164.5 125.9,168.5 128.3,172.5 "/>
<polygon id="XMLID_669_" class="st0" points="96.7,168.5 99.2,164.5 96.7,160.5 91.8,160.5 89.3,164.5 91.8,168.5 "/>
<polygon id="XMLID_668_" class="st0" points="104,164.5 106.5,160.5 104,156.5 99.1,156.5 96.6,160.5 99.1,164.5 "/>
<polygon id="XMLID_667_" class="st0" points="104,172.5 106.5,168.5 104,164.5 99.1,164.5 96.6,168.5 99.1,172.5 "/>
<polygon id="XMLID_666_" class="st0" points="111.3,168.5 113.8,164.5 111.3,160.5 106.4,160.5 103.9,164.5 106.4,168.5 "/>
<polygon id="XMLID_665_" class="st0" points="111.3,160.5 113.8,156 111.3,151.5 106.4,151.5 103.9,156 106.4,160.5 "/>
<polygon id="XMLID_664_" class="st0" points="118.7,156.5 121.1,151.5 118.7,146.5 113.7,146.5 111.2,151.5 113.7,156.5 "/>
<polygon id="XMLID_663_" class="st0" points="118.7,164.5 121.1,160.5 118.7,156.5 113.7,156.5 111.2,160.5 113.7,164.5 "/>
<polygon id="XMLID_662_" class="st0" points="126,160.5 128.4,156 126,151.5 121,151.5 118.5,156 121,160.5 "/>
<polygon id="XMLID_661_" class="st0" points="126,201.5 128.4,197.5 126,193.5 121,193.5 118.5,197.5 121,201.5 "/>
<polygon id="XMLID_660_" class="st0" points="133.3,197.5 135.8,193.5 133.3,189.5 128.3,189.5 125.9,193.5 128.3,197.5 "/>
<polygon id="XMLID_659_" class="st0" points="133.3,204.5 135.8,201 133.3,197.5 128.3,197.5 125.9,201 128.3,204.5 "/>
<polygon id="XMLID_658_" class="st0" points="118.7,189.5 121.1,185 118.7,180.5 113.7,180.5 111.2,185 113.7,189.5 "/>
<polygon id="XMLID_657_" class="st0" points="126,185.5 128.4,181 126,176.5 121,176.5 118.5,181 121,185.5 "/>
<polygon id="XMLID_656_" class="st0" points="126,193.5 128.4,189.5 126,185.5 121,185.5 118.5,189.5 121,193.5 "/>
<polygon id="XMLID_655_" class="st0" points="133.3,189.5 135.8,185 133.3,180.5 128.3,180.5 125.9,185 128.3,189.5 "/>
<polygon id="XMLID_654_" class="st0" points="133.3,180.5 135.8,176.5 133.3,172.5 128.3,172.5 125.9,176.5 128.3,180.5 "/>
<polygon id="XMLID_640_" class="st0" points="45.5,265.5 48,261 45.5,256.5 40.6,256.5 38.1,261 40.6,265.5 "/>
<polygon id="XMLID_637_" class="st0" points="82.1,160.5 84.6,156 82.1,151.5 77.2,151.5 74.7,156 77.2,160.5 "/>
<polygon id="XMLID_636_" class="st0" points="89.4,156.5 91.9,151.5 89.4,146.5 84.5,146.5 82,151.5 84.5,156.5 "/>
<polygon id="XMLID_635_" class="st0" points="89.4,164.5 91.9,160.5 89.4,156.5 84.5,156.5 82,160.5 84.5,164.5 "/>
<polygon id="XMLID_634_" class="st0" points="96.7,160.5 99.2,156 96.7,151.5 91.8,151.5 89.3,156 91.8,160.5 "/>
<polygon id="XMLID_632_" class="st0" points="104,156.5 106.5,151.5 104,146.5 99.1,146.5 96.6,151.5 99.1,156.5 "/>
<polygon id="XMLID_624_" class="st0" points="74.8,197.5 77.3,193.5 74.8,189.5 69.8,189.5 67.4,193.5 69.8,197.5 "/>
<polygon id="XMLID_623_" class="st0" points="82.1,193.5 84.6,189.5 82.1,185.5 77.2,185.5 74.7,189.5 77.2,193.5 "/>
<polygon id="XMLID_622_" class="st0" points="82.1,201.5 84.6,197.5 82.1,193.5 77.2,193.5 74.7,197.5 77.2,201.5 "/>
<polygon id="XMLID_621_" class="st0" points="89.4,197.5 91.9,193.5 89.4,189.5 84.5,189.5 82,193.5 84.5,197.5 "/>
<polygon id="XMLID_620_" class="st0" points="89.4,189.5 91.9,185 89.4,180.5 84.5,180.5 82,185 84.5,189.5 "/>
<polygon id="XMLID_619_" class="st0" points="96.7,185.5 99.2,181 96.7,176.5 91.8,176.5 89.3,181 91.8,185.5 "/>
<polygon id="XMLID_618_" class="st0" points="96.7,193.5 99.2,189.5 96.7,185.5 91.8,185.5 89.3,189.5 91.8,193.5 "/>
<polygon id="XMLID_617_" class="st0" points="104,189.5 106.5,185 104,180.5 99.1,180.5 96.6,185 99.1,189.5 "/>
<polygon id="XMLID_616_" class="st0" points="67.5,185.5 70,181 67.5,176.5 62.5,176.5 60.1,181 62.5,185.5 "/>
<polygon id="XMLID_615_" class="st0" points="74.8,180.5 77.3,176.5 74.8,172.5 69.8,172.5 67.4,176.5 69.8,180.5 "/>
<polygon id="XMLID_614_" class="st0" points="74.8,189.5 77.3,185 74.8,180.5 69.8,180.5 67.4,185 69.8,189.5 "/>
<polygon id="XMLID_613_" class="st0" points="82.1,185.5 84.6,181 82.1,176.5 77.2,176.5 74.7,181 77.2,185.5 "/>
<polygon id="XMLID_612_" class="st0" points="82.1,176.5 84.6,172.5 82.1,168.5 77.2,168.5 74.7,172.5 77.2,176.5 "/>
<polygon id="XMLID_611_" class="st0" points="89.4,172.5 91.9,168.5 89.4,164.5 84.5,164.5 82,168.5 84.5,172.5 "/>
<polygon id="XMLID_610_" class="st0" points="89.4,180.5 91.9,176.5 89.4,172.5 84.5,172.5 82,176.5 84.5,180.5 "/>
<polygon id="XMLID_609_" class="st0" points="96.7,176.5 99.2,172.5 96.7,168.5 91.8,168.5 89.3,172.5 91.8,176.5 "/>
<polygon id="XMLID_608_" class="st0" points="96.7,218.5 99.2,214 96.7,209.5 91.8,209.5 89.3,214 91.8,218.5 "/>
<polygon id="XMLID_607_" class="st0" points="104,213.5 106.5,209 104,204.5 99.1,204.5 96.6,209 99.1,213.5 "/>
<polygon id="XMLID_606_" class="st0" points="104,223.5 106.5,218.5 104,213.5 99.1,213.5 96.6,218.5 99.1,223.5 "/>
<polygon id="XMLID_605_" class="st0" points="111.3,218.5 113.8,214 111.3,209.5 106.4,209.5 103.9,214 106.4,218.5 "/>
<polygon id="XMLID_604_" class="st0" points="111.3,209.5 113.8,205.5 111.3,201.5 106.4,201.5 103.9,205.5 106.4,209.5 "/>
<polygon id="XMLID_603_" class="st0" points="118.7,204.5 121.1,201 118.7,197.5 113.7,197.5 111.2,201 113.7,204.5 "/>
<polygon id="XMLID_602_" class="st0" points="118.7,213.5 121.1,209 118.7,204.5 113.7,204.5 111.2,209 113.7,213.5 "/>
<polygon id="XMLID_601_" class="st0" points="126,209.5 128.4,205.5 126,201.5 121,201.5 118.5,205.5 121,209.5 "/>
<polygon id="XMLID_600_" class="st0" points="89.4,204.5 91.9,201 89.4,197.5 84.5,197.5 82,201 84.5,204.5 "/>
<polygon id="XMLID_599_" class="st0" points="96.7,201.5 99.2,197.5 96.7,193.5 91.8,193.5 89.3,197.5 91.8,201.5 "/>
<polygon id="XMLID_598_" class="st0" points="96.7,209.5 99.2,205.5 96.7,201.5 91.8,201.5 89.3,205.5 91.8,209.5 "/>
<polygon id="XMLID_597_" class="st0" points="104,204.5 106.5,201 104,197.5 99.1,197.5 96.6,201 99.1,204.5 "/>
<polygon id="XMLID_596_" class="st0" points="104,197.5 106.5,193.5 104,189.5 99.1,189.5 96.6,193.5 99.1,197.5 "/>
<polygon id="XMLID_595_" class="st0" points="111.3,193.5 113.8,189.5 111.3,185.5 106.4,185.5 103.9,189.5 106.4,193.5 "/>
<polygon id="XMLID_594_" class="st0" points="111.3,201.5 113.8,197.5 111.3,193.5 106.4,193.5 103.9,197.5 106.4,201.5 "/>
<polygon id="XMLID_593_" class="st0" points="118.7,197.5 121.1,193.5 118.7,189.5 113.7,189.5 111.2,193.5 113.7,197.5 "/>
<polygon id="XMLID_592_" class="st0" points="30.9,157.5 33.4,152 30.9,146.5 26,146.5 23.5,152 26,157.5 "/>
<polygon id="XMLID_591_" class="st0" points="38.2,160.5 40.7,156 38.2,151.5 33.3,151.5 30.8,156 33.3,160.5 "/>
<polygon id="XMLID_590_" class="st0" points="45.5,157.5 48,152 45.5,146.5 40.6,146.5 38.1,152 40.6,157.5 "/>
<polygon id="XMLID_578_" class="st0" points="52.9,176.5 55.3,172.5 52.9,168.5 47.9,168.5 45.4,172.5 47.9,176.5 "/>
<polygon id="XMLID_577_" class="st0" points="60.2,172.5 62.6,168.5 60.2,164.5 55.2,164.5 52.7,168.5 55.2,172.5 "/>
<polygon id="XMLID_576_" class="st0" points="60.2,180.5 62.6,176.5 60.2,172.5 55.2,172.5 52.7,176.5 55.2,180.5 "/>
<polygon id="XMLID_575_" class="st0" points="67.5,176.5 70,172.5 67.5,168.5 62.5,168.5 60.1,172.5 62.5,176.5 "/>
<polygon id="XMLID_574_" class="st0" points="67.5,168.5 70,164.5 67.5,160.5 62.5,160.5 60.1,164.5 62.5,168.5 "/>
<polygon id="XMLID_573_" class="st0" points="74.8,164.5 77.3,160.5 74.8,156.5 69.8,156.5 67.4,160.5 69.8,164.5 "/>
<polygon id="XMLID_572_" class="st0" points="74.8,172.5 77.3,168.5 74.8,164.5 69.8,164.5 67.4,168.5 69.8,172.5 "/>
<polygon id="XMLID_571_" class="st0" points="82.1,168.5 84.6,164.5 82.1,160.5 77.2,160.5 74.7,164.5 77.2,168.5 "/>
<polygon id="XMLID_570_" class="st0" points="45.5,164.5 48,160.5 45.5,156.5 40.6,156.5 38.1,160.5 40.6,164.5 "/>
<polygon id="XMLID_569_" class="st0" points="52.9,160.5 55.3,156 52.9,151.5 47.9,151.5 45.4,156 47.9,160.5 "/>
<polygon id="XMLID_568_" class="st0" points="52.9,168.5 55.3,164.5 52.9,160.5 47.9,160.5 45.4,164.5 47.9,168.5 "/>
<polygon id="XMLID_567_" class="st0" points="60.2,164.5 62.6,160.5 60.2,156.5 55.2,156.5 52.7,160.5 55.2,164.5 "/>
<polygon id="XMLID_566_" class="st0" points="60.2,156.5 62.6,151.5 60.2,146.5 55.2,146.5 52.7,151.5 55.2,156.5 "/>
<polygon id="XMLID_565_" class="st0" points="67.5,160.5 70,156 67.5,151.5 62.5,151.5 60.1,156 62.5,160.5 "/>
<polygon id="XMLID_564_" class="st0" points="74.8,156.5 77.3,151.5 74.8,146.5 69.8,146.5 67.4,151.5 69.8,156.5 "/>
<polygon id="XMLID_563_" class="st0" points="45.5,213.5 48,209 45.5,204.5 40.6,204.5 38.1,209 40.6,213.5 "/>
<polygon id="XMLID_562_" class="st0" points="52.9,209.5 55.3,205.5 52.9,201.5 47.9,201.5 45.4,205.5 47.9,209.5 "/>
<polygon id="XMLID_561_" class="st0" points="52.9,218.5 55.3,214 52.9,209.5 47.9,209.5 45.4,214 47.9,218.5 "/>
<polygon id="XMLID_560_" class="st0" points="60.2,213.5 62.6,209 60.2,204.5 55.2,204.5 52.7,209 55.2,213.5 "/>
<polygon id="XMLID_559_" class="st0" points="60.2,204.5 62.6,201 60.2,197.5 55.2,197.5 52.7,201 55.2,204.5 "/>
<polygon id="XMLID_558_" class="st0" points="67.5,201.5 70,197.5 67.5,193.5 62.5,193.5 60.1,197.5 62.5,201.5 "/>
<polygon id="XMLID_557_" class="st0" points="67.5,209.5 70,205.5 67.5,201.5 62.5,201.5 60.1,205.5 62.5,209.5 "/>
<polygon id="XMLID_556_" class="st0" points="74.8,204.5 77.3,201 74.8,197.5 69.8,197.5 67.4,201 69.8,204.5 "/>
<polygon id="XMLID_555_" class="st0" points="38.2,201.5 40.7,197.5 38.2,193.5 33.3,193.5 30.8,197.5 33.3,201.5 "/>
<polygon id="XMLID_554_" class="st0" points="45.5,197.5 48,193.5 45.5,189.5 40.6,189.5 38.1,193.5 40.6,197.5 "/>
<polygon id="XMLID_553_" class="st0" points="45.5,204.5 48,201 45.5,197.5 40.6,197.5 38.1,201 40.6,204.5 "/>
<polygon id="XMLID_552_" class="st0" points="52.9,201.5 55.3,197.5 52.9,193.5 47.9,193.5 45.4,197.5 47.9,201.5 "/>
<polygon id="XMLID_551_" class="st0" points="52.9,193.5 55.3,189.5 52.9,185.5 47.9,185.5 45.4,189.5 47.9,193.5 "/>
<polygon id="XMLID_550_" class="st0" points="60.2,189.5 62.6,185 60.2,180.5 55.2,180.5 52.7,185 55.2,189.5 "/>
<polygon id="XMLID_549_" class="st0" points="60.2,197.5 62.6,193.5 60.2,189.5 55.2,189.5 52.7,193.5 55.2,197.5 "/>
<polygon id="XMLID_548_" class="st0" points="67.5,193.5 70,189.5 67.5,185.5 62.5,185.5 60.1,189.5 62.5,193.5 "/>
<polygon id="XMLID_547_" class="st0" points="67.5,235.5 70,231 67.5,226.5 62.5,226.5 60.1,231 62.5,235.5 "/>
<polygon id="XMLID_546_" class="st0" points="74.8,231.5 77.3,227.5 74.8,223.5 69.8,223.5 67.4,227.5 69.8,231.5 "/>
<polygon id="XMLID_545_" class="st0" points="74.8,238.5 77.3,235 74.8,231.5 69.8,231.5 67.4,235 69.8,238.5 "/>
<polygon id="XMLID_544_" class="st0" points="82.1,235.5 84.6,231 82.1,226.5 77.2,226.5 74.7,231 77.2,235.5 "/>
<polygon id="XMLID_543_" class="st0" points="82.1,226.5 84.6,222.5 82.1,218.5 77.2,218.5 74.7,222.5 77.2,226.5 "/>
<polygon id="XMLID_542_" class="st0" points="89.4,223.5 91.9,218.5 89.4,213.5 84.5,213.5 82,218.5 84.5,223.5 "/>
<polygon id="XMLID_541_" class="st0" points="89.4,231.5 91.9,227.5 89.4,223.5 84.5,223.5 82,227.5 84.5,231.5 "/>
<polygon id="XMLID_540_" class="st0" points="96.7,226.5 99.2,222.5 96.7,218.5 91.8,218.5 89.3,222.5 91.8,226.5 "/>
<polygon id="XMLID_539_" class="st0" points="60.2,223.5 62.6,218.5 60.2,213.5 55.2,213.5 52.7,218.5 55.2,223.5 "/>
<polygon id="XMLID_538_" class="st0" points="67.5,218.5 70,214 67.5,209.5 62.5,209.5 60.1,214 62.5,218.5 "/>
<polygon id="XMLID_537_" class="st0" points="67.5,226.5 70,222.5 67.5,218.5 62.5,218.5 60.1,222.5 62.5,226.5 "/>
<polygon id="XMLID_536_" class="st0" points="74.8,223.5 77.3,218.5 74.8,213.5 69.8,213.5 67.4,218.5 69.8,223.5 "/>
<polygon id="XMLID_535_" class="st0" points="74.8,213.5 77.3,209 74.8,204.5 69.8,204.5 67.4,209 69.8,213.5 "/>
<polygon id="XMLID_534_" class="st0" points="82.1,209.5 84.6,205.5 82.1,201.5 77.2,201.5 74.7,205.5 77.2,209.5 "/>
<polygon id="XMLID_533_" class="st0" points="82.1,218.5 84.6,214 82.1,209.5 77.2,209.5 74.7,214 77.2,218.5 "/>
<polygon id="XMLID_532_" class="st0" points="89.4,213.5 91.9,209 89.4,204.5 84.5,204.5 82,209 84.5,213.5 "/>
<polygon id="XMLID_531_" class="st0" points="1.7,172.5 4.2,168.5 1.7,164.5 -3.3,164.5 -5.7,168.5 -3.3,172.5 "/>
<polygon id="XMLID_530_" class="st0" points="9,168.5 11.5,164.5 9,160.5 4,160.5 1.6,164.5 4,168.5 "/>
<polygon id="XMLID_529_" class="st0" points="9,176.5 11.5,172.5 9,168.5 4,168.5 1.6,172.5 4,176.5 "/>
<polygon id="XMLID_528_" class="st0" points="16.3,172.5 18.8,168.5 16.3,164.5 11.4,164.5 8.9,168.5 11.4,172.5 "/>
<polygon id="XMLID_527_" class="st0" points="16.3,164.5 18.8,161 16.3,157.5 11.4,157.5 8.9,161 11.4,164.5 "/>
<polygon id="XMLID_526_" class="st0" points="23.6,160.5 26.1,156 23.6,151.5 18.7,151.5 16.2,156 18.7,160.5 "/>
<polygon id="XMLID_525_" class="st0" points="23.6,168.5 26.1,164.5 23.6,160.5 18.7,160.5 16.2,164.5 18.7,168.5 "/>
<polygon id="XMLID_524_" class="st0" points="30.9,164.5 33.4,161 30.9,157.5 26,157.5 23.5,161 26,164.5 "/>
<polygon id="XMLID_523_" class="st0" points="140.6,160.5 143.1,156 140.6,151.5 135.6,151.5 133.2,156 135.6,160.5 "/>
<polygon id="XMLID_522_" class="st0" points="1.7,157.5 4.2,152 1.7,146.5 -3.3,146.5 -5.7,152 -3.3,157.5 "/>
<polygon id="XMLID_521_" class="st0" points="1.7,164.5 4.2,161 1.7,157.5 -3.3,157.5 -5.7,161 -3.3,164.5 "/>
<polygon id="XMLID_520_" class="st0" points="9,160.5 11.5,156 9,151.5 4,151.5 1.6,156 4,160.5 "/>
<polygon id="XMLID_519_" class="st0" points="16.3,157.5 18.8,152 16.3,146.5 11.4,146.5 8.9,152 11.4,157.5 "/>
<polygon id="XMLID_518_" class="st0" points="23.6,193.5 26.1,189.5 23.6,185.5 18.7,185.5 16.2,189.5 18.7,193.5 "/>
<polygon id="XMLID_517_" class="st0" points="30.9,189.5 33.4,185 30.9,180.5 26,180.5 23.5,185 26,189.5 "/>
<polygon id="XMLID_516_" class="st0" points="30.9,197.5 33.4,193.5 30.9,189.5 26,189.5 23.5,193.5 26,197.5 "/>
<polygon id="XMLID_515_" class="st0" points="38.2,193.5 40.7,189.5 38.2,185.5 33.3,185.5 30.8,189.5 33.3,193.5 "/>
<polygon id="XMLID_253_" class="st0" points="38.2,185.5 40.7,181 38.2,176.5 33.3,176.5 30.8,181 33.3,185.5 "/>
<polygon id="XMLID_250_" class="st0" points="45.5,180.5 48,176.5 45.5,172.5 40.6,172.5 38.1,176.5 40.6,180.5 "/>
<polygon id="XMLID_247_" class="st0" points="45.5,189.5 48,185 45.5,180.5 40.6,180.5 38.1,185 40.6,189.5 "/>
<polygon id="XMLID_142_" class="st0" points="52.9,185.5 55.3,181 52.9,176.5 47.9,176.5 45.4,181 47.9,185.5 "/>
<polygon id="XMLID_139_" class="st0" points="16.3,180.5 18.8,176.5 16.3,172.5 11.4,172.5 8.9,176.5 11.4,180.5 "/>
<polygon id="XMLID_136_" class="st0" points="23.6,176.5 26.1,172.5 23.6,168.5 18.7,168.5 16.2,172.5 18.7,176.5 "/>
<polygon id="XMLID_97_" class="st0" points="23.6,185.5 26.1,181 23.6,176.5 18.7,176.5 16.2,181 18.7,185.5 "/>
<polygon id="XMLID_92_" class="st0" points="30.9,180.5 33.4,176.5 30.9,172.5 26,172.5 23.5,176.5 26,180.5 "/>
<polygon id="XMLID_69_" class="st0" points="30.9,172.5 33.4,168.5 30.9,164.5 26,164.5 23.5,168.5 26,172.5 "/>
<polygon id="XMLID_14_" class="st0" points="38.2,168.5 40.7,164.5 38.2,160.5 33.3,160.5 30.8,164.5 33.3,168.5 "/>
<polygon id="XMLID_13_" class="st0" points="38.2,176.5 40.7,172.5 38.2,168.5 33.3,168.5 30.8,172.5 33.3,176.5 "/>
<polygon id="XMLID_11_" class="st0" points="45.5,172.5 48,168.5 45.5,164.5 40.6,164.5 38.1,168.5 40.6,172.5 "/>
<polygon id="XMLID_514_" class="st0" points="23.6,84.5 26.1,80 23.6,75.5 18.7,75.5 16.2,80 18.7,84.5 "/>
<polygon id="XMLID_513_" class="st0" points="30.9,80.5 33.4,76.5 30.9,72.5 26,72.5 23.5,76.5 26,80.5 "/>
<polygon id="XMLID_512_" class="st0" points="30.9,88.5 33.4,84.5 30.9,80.5 26,80.5 23.5,84.5 26,88.5 "/>
<polygon id="XMLID_511_" class="st0" points="38.2,84.5 40.7,80 38.2,75.5 33.3,75.5 30.8,80 33.3,84.5 "/>
<polygon id="XMLID_510_" class="st0" points="38.2,75.5 40.7,71.5 38.2,67.5 33.3,67.5 30.8,71.5 33.3,75.5 "/>
<polygon id="XMLID_509_" class="st0" points="45.5,72.5 48,68 45.5,63.5 40.6,63.5 38.1,68 40.6,72.5 "/>
<polygon id="XMLID_508_" class="st0" points="45.5,80.5 48,76.5 45.5,72.5 40.6,72.5 38.1,76.5 40.6,80.5 "/>
<polygon id="XMLID_507_" class="st0" points="52.9,75.5 55.3,71.5 52.9,67.5 47.9,67.5 45.4,71.5 47.9,75.5 "/>
<polygon id="XMLID_506_" class="st0" points="16.3,72.5 18.8,68 16.3,63.5 11.4,63.5 8.9,68 11.4,72.5 "/>
<polygon id="XMLID_505_" class="st0" points="23.6,67.5 26.1,63.5 23.6,59.5 18.7,59.5 16.2,63.5 18.7,67.5 "/>
<polygon id="XMLID_504_" class="st0" points="23.6,75.5 26.1,71.5 23.6,67.5 18.7,67.5 16.2,71.5 18.7,75.5 "/>
<polygon id="XMLID_503_" class="st0" points="30.9,72.5 33.4,68 30.9,63.5 26,63.5 23.5,68 26,72.5 "/>
<polygon id="XMLID_502_" class="st0" points="30.9,63.5 33.4,59 30.9,54.5 26,54.5 23.5,59 26,63.5 "/>
<polygon id="XMLID_501_" class="st0" points="38.2,59.5 40.7,55 38.2,50.5 33.3,50.5 30.8,55 33.3,59.5 "/>
<polygon id="XMLID_500_" class="st0" points="38.2,67.5 40.7,63.5 38.2,59.5 33.3,59.5 30.8,63.5 33.3,67.5 "/>
<polygon id="XMLID_499_" class="st0" points="45.5,63.5 48,59 45.5,54.5 40.6,54.5 38.1,59 40.6,63.5 "/>
<polygon id="XMLID_498_" class="st0" points="45.5,105.5 48,101 45.5,96.5 40.6,96.5 38.1,101 40.6,105.5 "/>
<polygon id="XMLID_497_" class="st0" points="52.9,100.5 55.3,96 52.9,91.5 47.9,91.5 45.4,96 47.9,100.5 "/>
<polygon id="XMLID_496_" class="st0" points="52.9,109.5 55.3,105 52.9,100.5 47.9,100.5 45.4,105 47.9,109.5 "/>
<polygon id="XMLID_495_" class="st0" points="60.2,105.5 62.6,101 60.2,96.5 55.2,96.5 52.7,101 55.2,105.5 "/>
<polygon id="XMLID_494_" class="st0" points="60.2,96.5 62.6,92.5 60.2,88.5 55.2,88.5 52.7,92.5 55.2,96.5 "/>
<polygon id="XMLID_493_" class="st0" points="67.5,91.5 70,88 67.5,84.5 62.5,84.5 60.1,88 62.5,91.5 "/>
<polygon id="XMLID_492_" class="st0" points="67.5,100.5 70,96 67.5,91.5 62.5,91.5 60.1,96 62.5,100.5 "/>
<polygon id="XMLID_491_" class="st0" points="74.8,96.5 77.3,92.5 74.8,88.5 69.8,88.5 67.4,92.5 69.8,96.5 "/>
<polygon id="XMLID_490_" class="st0" points="38.2,91.5 40.7,88 38.2,84.5 33.3,84.5 30.8,88 33.3,91.5 "/>
<polygon id="XMLID_489_" class="st0" points="45.5,88.5 48,84.5 45.5,80.5 40.6,80.5 38.1,84.5 40.6,88.5 "/>
<polygon id="XMLID_488_" class="st0" points="45.5,96.5 48,92.5 45.5,88.5 40.6,88.5 38.1,92.5 40.6,96.5 "/>
<polygon id="XMLID_487_" class="st0" points="52.9,91.5 55.3,88 52.9,84.5 47.9,84.5 45.4,88 47.9,91.5 "/>
<polygon id="XMLID_486_" class="st0" points="52.9,84.5 55.3,80 52.9,75.5 47.9,75.5 45.4,80 47.9,84.5 "/>
<polygon id="XMLID_485_" class="st0" points="60.2,80.5 62.6,76 60.2,71.5 55.2,71.5 52.7,76 55.2,80.5 "/>
<polygon id="XMLID_484_" class="st0" points="60.2,88.5 62.6,84.5 60.2,80.5 55.2,80.5 52.7,84.5 55.2,88.5 "/>
<polygon id="XMLID_483_" class="st0" points="67.5,84.5 70,80 67.5,75.5 62.5,75.5 60.1,80 62.5,84.5 "/>
<polygon id="XMLID_477_" class="st0" points="1.7,29.5 4.2,25 1.7,20.5 -3.3,20.5 -5.7,25 -3.3,29.5 "/>
<polygon id="XMLID_476_" class="st0" points="1.7,38.5 4.2,34 1.7,29.5 -3.3,29.5 -5.7,34 -3.3,38.5 "/>
<polygon id="XMLID_475_" class="st0" points="9,34.5 11.5,30 9,25.5 4,25.5 1.6,30 4,34.5 "/>
<polygon id="XMLID_467_" class="st0" points="1.7,20.5 4.2,17 1.7,13.5 -3.3,13.5 -5.7,17 -3.3,20.5 "/>
<polygon id="XMLID_466_" class="st0" points="1.7,63.5 4.2,59 1.7,54.5 -3.3,54.5 -5.7,59 -3.3,63.5 "/>
<polygon id="XMLID_465_" class="st0" points="9,59.5 11.5,55 9,50.5 4,50.5 1.6,55 4,59.5 "/>
<polygon id="XMLID_464_" class="st0" points="9,67.5 11.5,63.5 9,59.5 4,59.5 1.6,63.5 4,67.5 "/>
<polygon id="XMLID_463_" class="st0" points="16.3,63.5 18.8,59 16.3,54.5 11.4,54.5 8.9,59 11.4,63.5 "/>
<polygon id="XMLID_462_" class="st0" points="16.3,54.5 18.8,50.5 16.3,46.5 11.4,46.5 8.9,50.5 11.4,54.5 "/>
<polygon id="XMLID_461_" class="st0" points="23.6,50.5 26.1,46.5 23.6,42.5 18.7,42.5 16.2,46.5 18.7,50.5 "/>
<polygon id="XMLID_460_" class="st0" points="23.6,59.5 26.1,55 23.6,50.5 18.7,50.5 16.2,55 18.7,59.5 "/>
<polygon id="XMLID_459_" class="st0" points="30.9,54.5 33.4,50.5 30.9,46.5 26,46.5 23.5,50.5 26,54.5 "/>
<polygon id="XMLID_457_" class="st0" points="1.7,46.5 4.2,42.5 1.7,38.5 -3.3,38.5 -5.7,42.5 -3.3,46.5 "/>
<polygon id="XMLID_456_" class="st0" points="1.7,54.5 4.2,50.5 1.7,46.5 -3.3,46.5 -5.7,50.5 -3.3,54.5 "/>
<polygon id="XMLID_455_" class="st0" points="9,50.5 11.5,46.5 9,42.5 4,42.5 1.6,46.5 4,50.5 "/>
<polygon id="XMLID_454_" class="st0" points="9,42.5 11.5,38 9,33.5 4,33.5 1.6,38 4,42.5 "/>
<polygon id="XMLID_453_" class="st0" points="16.3,38.5 18.8,34 16.3,29.5 11.4,29.5 8.9,34 11.4,38.5 "/>
<polygon id="XMLID_452_" class="st0" points="16.3,46.5 18.8,42.5 16.3,38.5 11.4,38.5 8.9,42.5 11.4,46.5 "/>
<polygon id="XMLID_451_" class="st0" points="23.6,42.5 26.1,38 23.6,33.5 18.7,33.5 16.2,38 18.7,42.5 "/>
<polygon id="XMLID_449_" class="st0" points="1.7,96.5 4.2,92.5 1.7,88.5 -3.3,88.5 -5.7,92.5 -3.3,96.5 "/>
<polygon id="XMLID_448_" class="st0" points="1.7,105.5 4.2,101 1.7,96.5 -3.3,96.5 -5.7,101 -3.3,105.5 "/>
<polygon id="XMLID_447_" class="st0" points="9,100.5 11.5,96.5 9,92.5 4,92.5 1.6,96.5 4,100.5 "/>
<polygon id="XMLID_446_" class="st0" points="9,92.5 11.5,88.5 9,84.5 4,84.5 1.6,88.5 4,92.5 "/>
<polygon id="XMLID_445_" class="st0" points="16.3,88.5 18.8,84.5 16.3,80.5 11.4,80.5 8.9,84.5 11.4,88.5 "/>
<polygon id="XMLID_444_" class="st0" points="16.3,96.5 18.8,92.5 16.3,88.5 11.4,88.5 8.9,92.5 11.4,96.5 "/>
<polygon id="XMLID_443_" class="st0" points="23.6,92.5 26.1,88.5 23.6,84.5 18.7,84.5 16.2,88.5 18.7,92.5 "/>
<polygon id="XMLID_439_" class="st0" points="1.7,88.5 4.2,84.5 1.7,80.5 -3.3,80.5 -5.7,84.5 -3.3,88.5 "/>
<polygon id="XMLID_438_" class="st0" points="1.7,80.5 4.2,76.5 1.7,72.5 -3.3,72.5 -5.7,76.5 -3.3,80.5 "/>
<polygon id="XMLID_437_" class="st0" points="9,75.5 11.5,71.5 9,67.5 4,67.5 1.6,71.5 4,75.5 "/>
<polygon id="XMLID_436_" class="st0" points="9,84.5 11.5,80 9,75.5 4,75.5 1.6,80 4,84.5 "/>
<polygon id="XMLID_435_" class="st0" points="16.3,80.5 18.8,76.5 16.3,72.5 11.4,72.5 8.9,76.5 11.4,80.5 "/>
<polygon id="XMLID_434_" class="st0" points="16.3,122.5 18.8,118 16.3,113.5 11.4,113.5 8.9,118 11.4,122.5 "/>
<polygon id="XMLID_433_" class="st0" points="23.6,117.5 26.1,113.5 23.6,109.5 18.7,109.5 16.2,113.5 18.7,117.5 "/>
<polygon id="XMLID_432_" class="st0" points="23.6,127.5 26.1,122.5 23.6,117.5 18.7,117.5 16.2,122.5 18.7,127.5 "/>
<polygon id="XMLID_431_" class="st0" points="30.9,122.5 33.4,118 30.9,113.5 26,113.5 23.5,118 26,122.5 "/>
<polygon id="XMLID_430_" class="st0" points="30.9,113.5 33.4,109.5 30.9,105.5 26,105.5 23.5,109.5 26,113.5 "/>
<polygon id="XMLID_429_" class="st0" points="38.2,109.5 40.7,105 38.2,100.5 33.3,100.5 30.8,105 33.3,109.5 "/>
<polygon id="XMLID_428_" class="st0" points="38.2,117.5 40.7,113.5 38.2,109.5 33.3,109.5 30.8,113.5 33.3,117.5 "/>
<polygon id="XMLID_427_" class="st0" points="45.5,113.5 48,109.5 45.5,105.5 40.6,105.5 38.1,109.5 40.6,113.5 "/>
<polygon id="XMLID_426_" class="st0" points="9,109.5 11.5,105 9,100.5 4,100.5 1.6,105 4,109.5 "/>
<polygon id="XMLID_425_" class="st0" points="16.3,105.5 18.8,101 16.3,96.5 11.4,96.5 8.9,101 11.4,105.5 "/>
<polygon id="XMLID_424_" class="st0" points="16.3,113.5 18.8,109.5 16.3,105.5 11.4,105.5 8.9,109.5 11.4,113.5 "/>
<polygon id="XMLID_423_" class="st0" points="23.6,109.5 26.1,105 23.6,100.5 18.7,100.5 16.2,105 18.7,109.5 "/>
<polygon id="XMLID_422_" class="st0" points="23.6,100.5 26.1,96 23.6,91.5 18.7,91.5 16.2,96 18.7,100.5 "/>
<polygon id="XMLID_421_" class="st0" points="30.9,96.5 33.4,92.5 30.9,88.5 26,88.5 23.5,92.5 26,96.5 "/>
<polygon id="XMLID_420_" class="st0" points="30.9,105.5 33.4,101 30.9,96.5 26,96.5 23.5,101 26,105.5 "/>
<polygon id="XMLID_419_" class="st0" points="38.2,100.5 40.7,96 38.2,91.5 33.3,91.5 30.8,96 33.3,100.5 "/>
<polygon id="XMLID_395_" class="st0" points="1.7,72.5 4.2,68 1.7,63.5 -3.3,63.5 -5.7,68 -3.3,72.5 "/>
<polygon id="XMLID_367_" class="st0" points="1.7,139.5 4.2,134.5 1.7,129.5 -3.3,129.5 -5.7,134.5 -3.3,139.5 "/>
<polygon id="XMLID_366_" class="st0" points="1.7,129.5 4.2,126 1.7,122.5 -3.3,122.5 -5.7,126 -3.3,129.5 "/>
<polygon id="XMLID_365_" class="st0" points="9,127.5 11.5,122.5 9,117.5 4,117.5 1.6,122.5 4,127.5 "/>
<polygon id="XMLID_364_" class="st0" points="9,133.5 11.5,130.5 9,127.5 4,127.5 1.6,130.5 4,133.5 "/>
<polygon id="XMLID_363_" class="st0" points="16.3,129.5 18.8,126 16.3,122.5 11.4,122.5 8.9,126 11.4,129.5 "/>
<polygon id="XMLID_357_" class="st0" points="1.7,113.5 4.2,109.5 1.7,105.5 -3.3,105.5 -5.7,109.5 -3.3,113.5 "/>
<polygon id="XMLID_356_" class="st0" points="1.7,122.5 4.2,118 1.7,113.5 -3.3,113.5 -5.7,118 -3.3,122.5 "/>
<polygon id="XMLID_355_" class="st0" points="9,117.5 11.5,113.5 9,109.5 4,109.5 1.6,113.5 4,117.5 "/>
<polygon id="XMLID_354_" class="st0" points="126,91.5 128.4,88 126,84.5 121,84.5 118.5,88 121,91.5 "/>
<polygon id="XMLID_353_" class="st0" points="133.3,88.5 135.8,84.5 133.3,80.5 128.3,80.5 125.9,84.5 128.3,88.5 "/>
<polygon id="XMLID_352_" class="st0" points="133.3,96.5 135.8,92.5 133.3,88.5 128.3,88.5 125.9,92.5 128.3,96.5 "/>
<polygon id="XMLID_351_" class="st0" points="140.6,91.5 143.1,88 140.6,84.5 135.6,84.5 133.2,88 135.6,91.5 "/>
<polygon id="XMLID_350_" class="st0" points="140.6,84.5 143.1,80 140.6,75.5 135.6,75.5 133.2,80 135.6,84.5 "/>
<polygon id="XMLID_346_" class="st0" points="118.7,80.5 121.1,76 118.7,71.5 113.7,71.5 111.2,76 113.7,80.5 "/>
<polygon id="XMLID_345_" class="st0" points="126,75.5 128.4,71.5 126,67.5 121,67.5 118.5,71.5 121,75.5 "/>
<polygon id="XMLID_344_" class="st0" points="126,84.5 128.4,80 126,75.5 121,75.5 118.5,80 121,84.5 "/>
<polygon id="XMLID_343_" class="st0" points="133.3,80.5 135.8,76 133.3,71.5 128.3,71.5 125.9,76 128.3,80.5 "/>
<polygon id="XMLID_342_" class="st0" points="133.3,71.5 135.8,67.5 133.3,63.5 128.3,63.5 125.9,67.5 128.3,71.5 "/>
<polygon id="XMLID_341_" class="st0" points="140.6,67.5 143.1,63.5 140.6,59.5 135.6,59.5 133.2,63.5 135.6,67.5 "/>
<polygon id="XMLID_340_" class="st0" points="140.6,75.5 143.1,71.5 140.6,67.5 135.6,67.5 133.2,71.5 135.6,75.5 "/>
<polygon id="XMLID_330_" class="st0" points="140.6,100.5 143.1,96 140.6,91.5 135.6,91.5 133.2,96 135.6,100.5 "/>
<polygon id="XMLID_322_" class="st0" points="140.6,151.5 143.1,146.5 140.6,141.5 135.6,141.5 133.2,146.5 135.6,151.5 "/>
<polygon id="XMLID_314_" class="st0" points="133.3,138.5 135.8,134 133.3,129.5 128.3,129.5 125.9,134 128.3,138.5 "/>
<polygon id="XMLID_313_" class="st0" points="140.6,133.5 143.1,130 140.6,126.5 135.6,126.5 133.2,130 135.6,133.5 "/>
<polygon id="XMLID_312_" class="st0" points="140.6,141.5 143.1,137.5 140.6,133.5 135.6,133.5 133.2,137.5 135.6,141.5 "/>
<polygon id="XMLID_290_" class="st0" points="96.7,109.5 99.2,105 96.7,100.5 91.8,100.5 89.3,105 91.8,109.5 "/>
<polygon id="XMLID_289_" class="st0" points="104,105.5 106.5,101 104,96.5 99.1,96.5 96.6,101 99.1,105.5 "/>
<polygon id="XMLID_288_" class="st0" points="104,113.5 106.5,109.5 104,105.5 99.1,105.5 96.6,109.5 99.1,113.5 "/>
<polygon id="XMLID_287_" class="st0" points="111.3,109.5 113.8,105 111.3,100.5 106.4,100.5 103.9,105 106.4,109.5 "/>
<polygon id="XMLID_286_" class="st0" points="111.3,100.5 113.8,96 111.3,91.5 106.4,91.5 103.9,96 106.4,100.5 "/>
<polygon id="XMLID_285_" class="st0" points="118.7,96.5 121.1,92.5 118.7,88.5 113.7,88.5 111.2,92.5 113.7,96.5 "/>
<polygon id="XMLID_284_" class="st0" points="118.7,105.5 121.1,101 118.7,96.5 113.7,96.5 111.2,101 113.7,105.5 "/>
<polygon id="XMLID_283_" class="st0" points="126,100.5 128.4,96 126,91.5 121,91.5 118.5,96 121,100.5 "/>
<polygon id="XMLID_282_" class="st0" points="89.4,96.5 91.9,92.5 89.4,88.5 84.5,88.5 82,92.5 84.5,96.5 "/>
<polygon id="XMLID_281_" class="st0" points="96.7,91.5 99.2,88 96.7,84.5 91.8,84.5 89.3,88 91.8,91.5 "/>
<polygon id="XMLID_280_" class="st0" points="96.7,100.5 99.2,96 96.7,91.5 91.8,91.5 89.3,96 91.8,100.5 "/>
<polygon id="XMLID_279_" class="st0" points="104,96.5 106.5,92.5 104,88.5 99.1,88.5 96.6,92.5 99.1,96.5 "/>
<polygon id="XMLID_278_" class="st0" points="104,88.5 106.5,84.5 104,80.5 99.1,80.5 96.6,84.5 99.1,88.5 "/>
<polygon id="XMLID_277_" class="st0" points="111.3,84.5 113.8,80 111.3,75.5 106.4,75.5 103.9,80 106.4,84.5 "/>
<polygon id="XMLID_276_" class="st0" points="111.3,91.5 113.8,88 111.3,84.5 106.4,84.5 103.9,88 106.4,91.5 "/>
<polygon id="XMLID_275_" class="st0" points="118.7,88.5 121.1,84.5 118.7,80.5 113.7,80.5 111.2,84.5 113.7,88.5 "/>
<polygon id="XMLID_274_" class="st0" points="118.7,129.5 121.1,125.5 118.7,121.5 113.7,121.5 111.2,125.5 113.7,129.5 "/>
<polygon id="XMLID_273_" class="st0" points="126,126.5 128.4,122 126,117.5 121,117.5 118.5,122 121,126.5 "/>
<polygon id="XMLID_272_" class="st0" points="126,133.5 128.4,130 126,126.5 121,126.5 118.5,130 121,133.5 "/>
<polygon id="XMLID_271_" class="st0" points="133.3,129.5 135.8,125.5 133.3,121.5 128.3,121.5 125.9,125.5 128.3,129.5 "/>
<polygon id="XMLID_270_" class="st0" points="133.3,121.5 135.8,117.5 133.3,113.5 128.3,113.5 125.9,117.5 128.3,121.5 "/>
<polygon id="XMLID_269_" class="st0" points="140.6,117.5 143.1,113.5 140.6,109.5 135.6,109.5 133.2,113.5 135.6,117.5 "/>
<polygon id="XMLID_268_" class="st0" points="140.6,126.5 143.1,122 140.6,117.5 135.6,117.5 133.2,122 135.6,126.5 "/>
<polygon id="XMLID_266_" class="st0" points="111.3,117.5 113.8,113.5 111.3,109.5 106.4,109.5 103.9,113.5 106.4,117.5 "/>
<polygon id="XMLID_265_" class="st0" points="118.7,113.5 121.1,109.5 118.7,105.5 113.7,105.5 111.2,109.5 113.7,113.5 "/>
<polygon id="XMLID_264_" class="st0" points="118.7,121.5 121.1,117.5 118.7,113.5 113.7,113.5 111.2,117.5 113.7,121.5 "/>
<polygon id="XMLID_263_" class="st0" points="126,117.5 128.4,113.5 126,109.5 121,109.5 118.5,113.5 121,117.5 "/>
<polygon id="XMLID_262_" class="st0" points="126,109.5 128.4,105 126,100.5 121,100.5 118.5,105 121,109.5 "/>
<polygon id="XMLID_261_" class="st0" points="133.3,105.5 135.8,100.5 133.3,95.5 128.3,95.5 125.9,100.5 128.3,105.5 "/>
<polygon id="XMLID_260_" class="st0" points="133.3,113.5 135.8,109.5 133.3,105.5 128.3,105.5 125.9,109.5 128.3,113.5 "/>
<polygon id="XMLID_259_" class="st0" points="140.6,109.5 143.1,105 140.6,100.5 135.6,100.5 133.2,105 135.6,109.5 "/>
<polygon id="XMLID_258_" class="st0" points="140.6,16.5 143.1,13 140.6,9.5 135.6,9.5 133.2,13 135.6,16.5 "/>
<polygon id="XMLID_249_" class="st0" points="111.3,151.5 113.8,146.5 111.3,141.5 106.4,141.5 103.9,146.5 106.4,151.5 "/>
<polygon id="XMLID_248_" class="st0" points="140.6,9.5 143.1,5 140.6,0.5 135.6,0.5 133.2,5 135.6,9.5 "/>
<polygon id="XMLID_246_" class="st0" points="118.7,146.5 121.1,142.5 118.7,138.5 113.7,138.5 111.2,142.5 113.7,146.5 "/>
<polygon id="XMLID_245_" class="st0" points="126,141.5 128.4,137.5 126,133.5 121,133.5 118.5,137.5 121,141.5 "/>
<polygon id="XMLID_244_" class="st0" points="126,151.5 128.4,146.5 126,141.5 121,141.5 118.5,146.5 121,151.5 "/>
<polygon id="XMLID_243_" class="st0" points="133.3,146.5 135.8,142.5 133.3,138.5 128.3,138.5 125.9,142.5 128.3,146.5 "/>
<polygon id="XMLID_226_" class="st0" points="67.5,127.5 70,122.5 67.5,117.5 62.5,117.5 60.1,122.5 62.5,127.5 "/>
<polygon id="XMLID_225_" class="st0" points="74.8,122.5 77.3,118 74.8,113.5 69.8,113.5 67.4,118 69.8,122.5 "/>
<polygon id="XMLID_224_" class="st0" points="74.8,129.5 77.3,126 74.8,122.5 69.8,122.5 67.4,126 69.8,129.5 "/>
<polygon id="XMLID_223_" class="st0" points="82.1,127.5 84.6,122.5 82.1,117.5 77.2,117.5 74.7,122.5 77.2,127.5 "/>
<polygon id="XMLID_222_" class="st0" points="82.1,117.5 84.6,113.5 82.1,109.5 77.2,109.5 74.7,113.5 77.2,117.5 "/>
<polygon id="XMLID_221_" class="st0" points="89.4,113.5 91.9,109.5 89.4,105.5 84.5,105.5 82,109.5 84.5,113.5 "/>
<polygon id="XMLID_220_" class="st0" points="89.4,122.5 91.9,118 89.4,113.5 84.5,113.5 82,118 84.5,122.5 "/>
<polygon id="XMLID_219_" class="st0" points="96.7,117.5 99.2,113.5 96.7,109.5 91.8,109.5 89.3,113.5 91.8,117.5 "/>
<polygon id="XMLID_218_" class="st0" points="60.2,113.5 62.6,109.5 60.2,105.5 55.2,105.5 52.7,109.5 55.2,113.5 "/>
<polygon id="XMLID_217_" class="st0" points="67.5,109.5 70,105 67.5,100.5 62.5,100.5 60.1,105 62.5,109.5 "/>
<polygon id="XMLID_216_" class="st0" points="67.5,117.5 70,113.5 67.5,109.5 62.5,109.5 60.1,113.5 62.5,117.5 "/>
<polygon id="XMLID_215_" class="st0" points="74.8,113.5 77.3,109.5 74.8,105.5 69.8,105.5 67.4,109.5 69.8,113.5 "/>
<polygon id="XMLID_214_" class="st0" points="74.8,105.5 77.3,101 74.8,96.5 69.8,96.5 67.4,101 69.8,105.5 "/>
<polygon id="XMLID_213_" class="st0" points="82.1,100.5 84.6,96 82.1,91.5 77.2,91.5 74.7,96 77.2,100.5 "/>
<polygon id="XMLID_212_" class="st0" points="82.1,109.5 84.6,105 82.1,100.5 77.2,100.5 74.7,105 77.2,109.5 "/>
<polygon id="XMLID_211_" class="st0" points="89.4,105.5 91.9,101 89.4,96.5 84.5,96.5 82,101 84.5,105.5 "/>
<polygon id="XMLID_210_" class="st0" points="89.4,146.5 91.9,142.5 89.4,138.5 84.5,138.5 82,142.5 84.5,146.5 "/>
<polygon id="XMLID_209_" class="st0" points="96.7,141.5 99.2,137.5 96.7,133.5 91.8,133.5 89.3,137.5 91.8,141.5 "/>
<polygon id="XMLID_208_" class="st0" points="96.7,151.5 99.2,146.5 96.7,141.5 91.8,141.5 89.3,146.5 91.8,151.5 "/>
<polygon id="XMLID_207_" class="st0" points="104,146.5 106.5,142.5 104,138.5 99.1,138.5 96.6,142.5 99.1,146.5 "/>
<polygon id="XMLID_206_" class="st0" points="104,138.5 106.5,134 104,129.5 99.1,129.5 96.6,134 99.1,138.5 "/>
<polygon id="XMLID_205_" class="st0" points="111.3,133.5 113.8,130 111.3,126.5 106.4,126.5 103.9,130 106.4,133.5 "/>
<polygon id="XMLID_204_" class="st0" points="111.3,141.5 113.8,137.5 111.3,133.5 106.4,133.5 103.9,137.5 106.4,141.5 "/>
<polygon id="XMLID_203_" class="st0" points="118.7,138.5 121.1,134 118.7,129.5 113.7,129.5 111.2,134 113.7,138.5 "/>
<polygon id="XMLID_202_" class="st0" points="82.1,133.5 84.6,130 82.1,126.5 77.2,126.5 74.7,130 77.2,133.5 "/>
<polygon id="XMLID_201_" class="st0" points="89.4,129.5 91.9,125.5 89.4,121.5 84.5,121.5 82,125.5 84.5,129.5 "/>
<polygon id="XMLID_200_" class="st0" points="89.4,138.5 91.9,134 89.4,129.5 84.5,129.5 82,134 84.5,138.5 "/>
<polygon id="XMLID_199_" class="st0" points="96.7,133.5 99.2,130 96.7,126.5 91.8,126.5 89.3,130 91.8,133.5 "/>
<polygon id="XMLID_198_" class="st0" points="96.7,126.5 99.2,122 96.7,117.5 91.8,117.5 89.3,122 91.8,126.5 "/>
<polygon id="XMLID_197_" class="st0" points="104,121.5 106.5,117.5 104,113.5 99.1,113.5 96.6,117.5 99.1,121.5 "/>
<polygon id="XMLID_196_" class="st0" points="104,129.5 106.5,125.5 104,121.5 99.1,121.5 96.6,125.5 99.1,129.5 "/>
<polygon id="XMLID_195_" class="st0" points="111.3,126.5 113.8,122 111.3,117.5 106.4,117.5 103.9,122 106.4,126.5 "/>
<polygon id="XMLID_194_" class="st0" points="111.3,33.5 113.8,29 111.3,24.5 106.4,24.5 103.9,29 106.4,33.5 "/>
<polygon id="XMLID_193_" class="st0" points="118.7,29.5 121.1,25 118.7,20.5 113.7,20.5 111.2,25 113.7,29.5 "/>
<polygon id="XMLID_192_" class="st0" points="118.7,38.5 121.1,34 118.7,29.5 113.7,29.5 111.2,34 113.7,38.5 "/>
<polygon id="XMLID_191_" class="st0" points="126,33.5 128.4,29 126,24.5 121,24.5 118.5,29 121,33.5 "/>
<polygon id="XMLID_190_" class="st0" points="126,24.5 128.4,20.5 126,16.5 121,16.5 118.5,20.5 121,24.5 "/>
<polygon id="XMLID_189_" class="st0" points="133.3,20.5 135.8,17 133.3,13.5 128.3,13.5 125.9,17 128.3,20.5 "/>
<polygon id="XMLID_188_" class="st0" points="133.3,29.5 135.8,25 133.3,20.5 128.3,20.5 125.9,25 128.3,29.5 "/>
<polygon id="XMLID_187_" class="st0" points="140.6,24.5 143.1,20.5 140.6,16.5 135.6,16.5 133.2,20.5 135.6,24.5 "/>
<polygon id="XMLID_186_" class="st0" points="104,20.5 106.5,17 104,13.5 99.1,13.5 96.6,17 99.1,20.5 "/>
<polygon id="XMLID_185_" class="st0" points="111.3,16.5 113.8,13 111.3,9.5 106.4,9.5 103.9,13 106.4,16.5 "/>
<polygon id="XMLID_184_" class="st0" points="111.3,24.5 113.8,20.5 111.3,16.5 106.4,16.5 103.9,20.5 106.4,24.5 "/>
<polygon id="XMLID_183_" class="st0" points="118.7,20.5 121.1,17 118.7,13.5 113.7,13.5 111.2,17 113.7,20.5 "/>
<polygon id="XMLID_182_" class="st0" points="118.7,13.5 121.1,9.5 118.7,5.5 113.7,5.5 111.2,9.5 113.7,13.5 "/>
<polygon id="XMLID_181_" class="st0" points="126,9.5 128.4,5 126,0.5 121,0.5 118.5,5 121,9.5 "/>
<polygon id="XMLID_180_" class="st0" points="126,16.5 128.4,13 126,9.5 121,9.5 118.5,13 121,16.5 "/>
<polygon id="XMLID_179_" class="st0" points="133.3,13.5 135.8,9.5 133.3,5.5 128.3,5.5 125.9,9.5 128.3,13.5 "/>
<polygon id="XMLID_178_" class="st0" points="133.3,54.5 135.8,50.5 133.3,46.5 128.3,46.5 125.9,50.5 128.3,54.5 "/>
<polygon id="XMLID_177_" class="st0" points="140.6,49.5 143.1,45.5 140.6,41.5 135.6,41.5 133.2,45.5 135.6,49.5 "/>
<polygon id="XMLID_176_" class="st0" points="140.6,59.5 143.1,54.5 140.6,49.5 135.6,49.5 133.2,54.5 135.6,59.5 "/>
<polygon id="XMLID_170_" class="st0" points="126,41.5 128.4,37.5 126,33.5 121,33.5 118.5,37.5 121,41.5 "/>
<polygon id="XMLID_169_" class="st0" points="133.3,37.5 135.8,33 133.3,28.5 128.3,28.5 125.9,33 128.3,37.5 "/>
<polygon id="XMLID_168_" class="st0" points="133.3,46.5 135.8,42 133.3,37.5 128.3,37.5 125.9,42 128.3,46.5 "/>
<polygon id="XMLID_167_" class="st0" points="140.6,41.5 143.1,37.5 140.6,33.5 135.6,33.5 133.2,37.5 135.6,41.5 "/>
<polygon id="XMLID_166_" class="st0" points="140.6,33.5 143.1,29 140.6,24.5 135.6,24.5 133.2,29 135.6,33.5 "/>
<polygon id="XMLID_162_" class="st0" points="38.2,142.5 40.7,138 38.2,133.5 33.3,133.5 30.8,138 33.3,142.5 "/>
<polygon id="XMLID_161_" class="st0" points="45.5,139.5 48,134.5 45.5,129.5 40.6,129.5 38.1,134.5 40.6,139.5 "/>
<polygon id="XMLID_160_" class="st0" points="45.5,146.5 48,143 45.5,139.5 40.6,139.5 38.1,143 40.6,146.5 "/>
<polygon id="XMLID_159_" class="st0" points="52.9,142.5 55.3,138 52.9,133.5 47.9,133.5 45.4,138 47.9,142.5 "/>
<polygon id="XMLID_158_" class="st0" points="52.9,133.5 55.3,130.5 52.9,127.5 47.9,127.5 45.4,130.5 47.9,133.5 "/>
<polygon id="XMLID_157_" class="st0" points="60.2,129.5 62.6,126 60.2,122.5 55.2,122.5 52.7,126 55.2,129.5 "/>
<polygon id="XMLID_156_" class="st0" points="60.2,139.5 62.6,134.5 60.2,129.5 55.2,129.5 52.7,134.5 55.2,139.5 "/>
<polygon id="XMLID_155_" class="st0" points="67.5,133.5 70,130.5 67.5,127.5 62.5,127.5 60.1,130.5 62.5,133.5 "/>
<polygon id="XMLID_154_" class="st0" points="30.9,129.5 33.4,126 30.9,122.5 26,122.5 23.5,126 26,129.5 "/>
<polygon id="XMLID_153_" class="st0" points="38.2,127.5 40.7,122.5 38.2,117.5 33.3,117.5 30.8,122.5 33.3,127.5 "/>
<polygon id="XMLID_152_" class="st0" points="38.2,133.5 40.7,130.5 38.2,127.5 33.3,127.5 30.8,130.5 33.3,133.5 "/>
<polygon id="XMLID_151_" class="st0" points="45.5,129.5 48,126 45.5,122.5 40.6,122.5 38.1,126 40.6,129.5 "/>
<polygon id="XMLID_150_" class="st0" points="45.5,122.5 48,118 45.5,113.5 40.6,113.5 38.1,118 40.6,122.5 "/>
<polygon id="XMLID_149_" class="st0" points="52.9,117.5 55.3,113.5 52.9,109.5 47.9,109.5 45.4,113.5 47.9,117.5 "/>
<polygon id="XMLID_148_" class="st0" points="52.9,127.5 55.3,122.5 52.9,117.5 47.9,117.5 45.4,122.5 47.9,127.5 "/>
<polygon id="XMLID_147_" class="st0" points="60.2,122.5 62.6,118 60.2,113.5 55.2,113.5 52.7,118 55.2,122.5 "/>
<polygon id="XMLID_146_" class="st0" points="89.4,13.5 91.9,9.5 89.4,5.5 84.5,5.5 82,9.5 84.5,13.5 "/>
<polygon id="XMLID_145_" class="st0" points="96.7,9.5 99.2,5 96.7,0.5 91.8,0.5 89.3,5 91.8,9.5 "/>
<polygon id="XMLID_144_" class="st0" points="96.7,16.5 99.2,13 96.7,9.5 91.8,9.5 89.3,13 91.8,16.5 "/>
<polygon id="XMLID_143_" class="st0" points="104,13.5 106.5,9.5 104,5.5 99.1,5.5 96.6,9.5 99.1,13.5 "/>
<polygon id="XMLID_141_" class="st0" points="82.1,151.5 84.6,146.5 82.1,141.5 77.2,141.5 74.7,146.5 77.2,151.5 "/>
<polygon id="XMLID_140_" class="st0" points="111.3,9.5 113.8,5 111.3,0.5 106.4,0.5 103.9,5 106.4,9.5 "/>
<polygon id="XMLID_138_" class="st0" points="52.9,151.5 55.3,146.5 52.9,141.5 47.9,141.5 45.4,146.5 47.9,151.5 "/>
<polygon id="XMLID_137_" class="st0" points="60.2,146.5 62.6,142.5 60.2,138.5 55.2,138.5 52.7,142.5 55.2,146.5 "/>
<polygon id="XMLID_135_" class="st0" points="67.5,151.5 70,146.5 67.5,141.5 62.5,141.5 60.1,146.5 62.5,151.5 "/>
<polygon id="XMLID_134_" class="st0" points="67.5,141.5 70,137.5 67.5,133.5 62.5,133.5 60.1,137.5 62.5,141.5 "/>
<polygon id="XMLID_133_" class="st0" points="74.8,138.5 77.3,134 74.8,129.5 69.8,129.5 67.4,134 69.8,138.5 "/>
<polygon id="XMLID_132_" class="st0" points="74.8,146.5 77.3,142.5 74.8,138.5 69.8,138.5 67.4,142.5 69.8,146.5 "/>
<polygon id="XMLID_131_" class="st0" points="82.1,141.5 84.6,137.5 82.1,133.5 77.2,133.5 74.7,137.5 77.2,141.5 "/>
<polygon id="XMLID_130_" class="st0" points="82.1,50.5 84.6,46.5 82.1,42.5 77.2,42.5 74.7,46.5 77.2,50.5 "/>
<polygon id="XMLID_129_" class="st0" points="89.4,46.5 91.9,42.5 89.4,38.5 84.5,38.5 82,42.5 84.5,46.5 "/>
<polygon id="XMLID_128_" class="st0" points="89.4,54.5 91.9,50.5 89.4,46.5 84.5,46.5 82,50.5 84.5,54.5 "/>
<polygon id="XMLID_127_" class="st0" points="96.7,50.5 99.2,46.5 96.7,42.5 91.8,42.5 89.3,46.5 91.8,50.5 "/>
<polygon id="XMLID_126_" class="st0" points="96.7,42.5 99.2,38 96.7,33.5 91.8,33.5 89.3,38 91.8,42.5 "/>
<polygon id="XMLID_125_" class="st0" points="104,38.5 106.5,34 104,29.5 99.1,29.5 96.6,34 99.1,38.5 "/>
<polygon id="XMLID_124_" class="st0" points="104,46.5 106.5,42.5 104,38.5 99.1,38.5 96.6,42.5 99.1,46.5 "/>
<polygon id="XMLID_123_" class="st0" points="111.3,42.5 113.8,38 111.3,33.5 106.4,33.5 103.9,38 106.4,42.5 "/>
<polygon id="XMLID_122_" class="st0" points="74.8,38.5 77.3,34 74.8,29.5 69.8,29.5 67.4,34 69.8,38.5 "/>
<polygon id="XMLID_121_" class="st0" points="82.1,33.5 84.6,29 82.1,24.5 77.2,24.5 74.7,29 77.2,33.5 "/>
<polygon id="XMLID_120_" class="st0" points="82.1,42.5 84.6,38 82.1,33.5 77.2,33.5 74.7,38 77.2,42.5 "/>
<polygon id="XMLID_119_" class="st0" points="89.4,38.5 91.9,34 89.4,29.5 84.5,29.5 82,34 84.5,38.5 "/>
<polygon id="XMLID_118_" class="st0" points="89.4,29.5 91.9,25 89.4,20.5 84.5,20.5 82,25 84.5,29.5 "/>
<polygon id="XMLID_117_" class="st0" points="96.7,24.5 99.2,20.5 96.7,16.5 91.8,16.5 89.3,20.5 91.8,24.5 "/>
<polygon id="XMLID_116_" class="st0" points="96.7,33.5 99.2,29 96.7,24.5 91.8,24.5 89.3,29 91.8,33.5 "/>
<polygon id="XMLID_115_" class="st0" points="104,29.5 106.5,25 104,20.5 99.1,20.5 96.6,25 99.1,29.5 "/>
<polygon id="XMLID_114_" class="st0" points="104,71.5 106.5,67.5 104,63.5 99.1,63.5 96.6,67.5 99.1,71.5 "/>
<polygon id="XMLID_113_" class="st0" points="111.3,67.5 113.8,63.5 111.3,59.5 106.4,59.5 103.9,63.5 106.4,67.5 "/>
<polygon id="XMLID_112_" class="st0" points="111.3,75.5 113.8,71.5 111.3,67.5 106.4,67.5 103.9,71.5 106.4,75.5 "/>
<polygon id="XMLID_111_" class="st0" points="118.7,71.5 121.1,67.5 118.7,63.5 113.7,63.5 111.2,67.5 113.7,71.5 "/>
<polygon id="XMLID_110_" class="st0" points="118.7,63.5 121.1,59 118.7,54.5 113.7,54.5 111.2,59 113.7,63.5 "/>
<polygon id="XMLID_109_" class="st0" points="126,59.5 128.4,54.5 126,49.5 121,49.5 118.5,54.5 121,59.5 "/>
<polygon id="XMLID_108_" class="st0" points="126,67.5 128.4,63.5 126,59.5 121,59.5 118.5,63.5 121,67.5 "/>
<polygon id="XMLID_107_" class="st0" points="133.3,63.5 135.8,59 133.3,54.5 128.3,54.5 125.9,59 128.3,63.5 "/>
<polygon id="XMLID_106_" class="st0" points="96.7,59.5 99.2,54.5 96.7,49.5 91.8,49.5 89.3,54.5 91.8,59.5 "/>
<polygon id="XMLID_105_" class="st0" points="104,54.5 106.5,50.5 104,46.5 99.1,46.5 96.6,50.5 99.1,54.5 "/>
<polygon id="XMLID_104_" class="st0" points="104,63.5 106.5,59 104,54.5 99.1,54.5 96.6,59 99.1,63.5 "/>
<polygon id="XMLID_103_" class="st0" points="111.3,59.5 113.8,54.5 111.3,49.5 106.4,49.5 103.9,54.5 106.4,59.5 "/>
<polygon id="XMLID_102_" class="st0" points="111.3,49.5 113.8,45.5 111.3,41.5 106.4,41.5 103.9,45.5 106.4,49.5 "/>
<polygon id="XMLID_101_" class="st0" points="118.7,46.5 121.1,42 118.7,37.5 113.7,37.5 111.2,42 113.7,46.5 "/>
<polygon id="XMLID_100_" class="st0" points="118.7,54.5 121.1,50.5 118.7,46.5 113.7,46.5 111.2,50.5 113.7,54.5 "/>
<polygon id="XMLID_99_" class="st0" points="126,49.5 128.4,45.5 126,41.5 121,41.5 118.5,45.5 121,49.5 "/>
<polygon id="XMLID_98_" class="st0" points="38.2,9.5 40.7,5 38.2,0.5 33.3,0.5 30.8,5 33.3,9.5 "/>
<polygon id="XMLID_96_" class="st0" points="45.5,13.5 48,9.5 45.5,5.5 40.6,5.5 38.1,9.5 40.6,13.5 "/>
<polygon id="XMLID_95_" class="st0" points="52.9,9.5 55.3,5 52.9,0.5 47.9,0.5 45.4,5 47.9,9.5 "/>
<polygon id="XMLID_94_" class="st0" points="23.6,151.5 26.1,147 23.6,142.5 18.7,142.5 16.2,147 18.7,151.5 "/>
<polygon id="XMLID_93_" class="st0" points="30.9,146.5 33.4,143 30.9,139.5 26,139.5 23.5,143 26,146.5 "/>
<polygon id="XMLID_91_" class="st0" points="38.2,151.5 40.7,147 38.2,142.5 33.3,142.5 30.8,147 33.3,151.5 "/>
<polygon id="XMLID_90_" class="st0" points="1.7,146.5 4.2,143 1.7,139.5 -3.3,139.5 -5.7,143 -3.3,146.5 "/>
<polygon id="XMLID_89_" class="st0" points="9,142.5 11.5,138 9,133.5 4,133.5 1.6,138 4,142.5 "/>
<polygon id="XMLID_88_" class="st0" points="9,151.5 11.5,147 9,142.5 4,142.5 1.6,147 4,151.5 "/>
<polygon id="XMLID_87_" class="st0" points="16.3,146.5 18.8,143 16.3,139.5 11.4,139.5 8.9,143 11.4,146.5 "/>
<polygon id="XMLID_86_" class="st0" points="16.3,139.5 18.8,134.5 16.3,129.5 11.4,129.5 8.9,134.5 11.4,139.5 "/>
<polygon id="XMLID_85_" class="st0" points="23.6,133.5 26.1,130.5 23.6,127.5 18.7,127.5 16.2,130.5 18.7,133.5 "/>
<polygon id="XMLID_84_" class="st0" points="23.6,142.5 26.1,138 23.6,133.5 18.7,133.5 16.2,138 18.7,142.5 "/>
<polygon id="XMLID_83_" class="st0" points="30.9,139.5 33.4,134.5 30.9,129.5 26,129.5 23.5,134.5 26,139.5 "/>
<polygon id="XMLID_82_" class="st0" points="60.2,29.5 62.6,25 60.2,20.5 55.2,20.5 52.7,25 55.2,29.5 "/>
<polygon id="XMLID_81_" class="st0" points="67.5,24.5 70,20.5 67.5,16.5 62.5,16.5 60.1,20.5 62.5,24.5 "/>
<polygon id="XMLID_80_" class="st0" points="67.5,33.5 70,29 67.5,24.5 62.5,24.5 60.1,29 62.5,33.5 "/>
<polygon id="XMLID_79_" class="st0" points="74.8,29.5 77.3,25 74.8,20.5 69.8,20.5 67.4,25 69.8,29.5 "/>
<polygon id="XMLID_78_" class="st0" points="74.8,20.5 77.3,17 74.8,13.5 69.8,13.5 67.4,17 69.8,20.5 "/>
<polygon id="XMLID_77_" class="st0" points="82.1,16.5 84.6,13 82.1,9.5 77.2,9.5 74.7,13 77.2,16.5 "/>
<polygon id="XMLID_76_" class="st0" points="82.1,24.5 84.6,20.5 82.1,16.5 77.2,16.5 74.7,20.5 77.2,24.5 "/>
<polygon id="XMLID_75_" class="st0" points="89.4,20.5 91.9,17 89.4,13.5 84.5,13.5 82,17 84.5,20.5 "/>
<polygon id="XMLID_74_" class="st0" points="52.9,16.5 55.3,13 52.9,9.5 47.9,9.5 45.4,13 47.9,16.5 "/>
<polygon id="XMLID_73_" class="st0" points="60.2,13.5 62.6,9.5 60.2,5.5 55.2,5.5 52.7,9.5 55.2,13.5 "/>
<polygon id="XMLID_72_" class="st0" points="60.2,20.5 62.6,17 60.2,13.5 55.2,13.5 52.7,17 55.2,20.5 "/>
<polygon id="XMLID_71_" class="st0" points="67.5,16.5 70,13 67.5,9.5 62.5,9.5 60.1,13 62.5,16.5 "/>
<polygon id="XMLID_70_" class="st0" points="67.5,9.5 70,5 67.5,0.5 62.5,0.5 60.1,5 62.5,9.5 "/>
<polygon id="XMLID_68_" class="st0" points="74.8,13.5 77.3,9.5 74.8,5.5 69.8,5.5 67.4,9.5 69.8,13.5 "/>
<polygon id="XMLID_67_" class="st0" points="82.1,9.5 84.6,5 82.1,0.5 77.2,0.5 74.7,5 77.2,9.5 "/>
<polygon id="XMLID_66_" class="st0" points="52.9,67.5 55.3,63.5 52.9,59.5 47.9,59.5 45.4,63.5 47.9,67.5 "/>
<polygon id="XMLID_65_" class="st0" points="60.2,63.5 62.6,59 60.2,54.5 55.2,54.5 52.7,59 55.2,63.5 "/>
<polygon id="XMLID_64_" class="st0" points="60.2,72.5 62.6,68 60.2,63.5 55.2,63.5 52.7,68 55.2,72.5 "/>
<polygon id="XMLID_63_" class="st0" points="67.5,67.5 70,63.5 67.5,59.5 62.5,59.5 60.1,63.5 62.5,67.5 "/>
<polygon id="XMLID_62_" class="st0" points="67.5,59.5 70,55 67.5,50.5 62.5,50.5 60.1,55 62.5,59.5 "/>
<polygon id="XMLID_61_" class="st0" points="74.8,54.5 77.3,50.5 74.8,46.5 69.8,46.5 67.4,50.5 69.8,54.5 "/>
<polygon id="XMLID_60_" class="st0" points="74.8,63.5 77.3,59 74.8,54.5 69.8,54.5 67.4,59 69.8,63.5 "/>
<polygon id="XMLID_59_" class="st0" points="82.1,59.5 84.6,55 82.1,50.5 77.2,50.5 74.7,55 77.2,59.5 "/>
<polygon id="XMLID_58_" class="st0" points="45.5,54.5 48,50.5 45.5,46.5 40.6,46.5 38.1,50.5 40.6,54.5 "/>
<polygon id="XMLID_57_" class="st0" points="52.9,50.5 55.3,46.5 52.9,42.5 47.9,42.5 45.4,46.5 47.9,50.5 "/>
<polygon id="XMLID_56_" class="st0" points="52.9,59.5 55.3,55 52.9,50.5 47.9,50.5 45.4,55 47.9,59.5 "/>
<polygon id="XMLID_55_" class="st0" points="60.2,54.5 62.6,50.5 60.2,46.5 55.2,46.5 52.7,50.5 55.2,54.5 "/>
<polygon id="XMLID_54_" class="st0" points="60.2,46.5 62.6,42.5 60.2,38.5 55.2,38.5 52.7,42.5 55.2,46.5 "/>
<polygon id="XMLID_53_" class="st0" points="67.5,42.5 70,38 67.5,33.5 62.5,33.5 60.1,38 62.5,42.5 "/>
<polygon id="XMLID_52_" class="st0" points="67.5,50.5 70,46.5 67.5,42.5 62.5,42.5 60.1,46.5 62.5,50.5 "/>
<polygon id="XMLID_51_" class="st0" points="74.8,46.5 77.3,42.5 74.8,38.5 69.8,38.5 67.4,42.5 69.8,46.5 "/>
<polygon id="XMLID_50_" class="st0" points="74.8,88.5 77.3,84.5 74.8,80.5 69.8,80.5 67.4,84.5 69.8,88.5 "/>
<polygon id="XMLID_49_" class="st0" points="82.1,84.5 84.6,80 82.1,75.5 77.2,75.5 74.7,80 77.2,84.5 "/>
<polygon id="XMLID_48_" class="st0" points="82.1,91.5 84.6,88 82.1,84.5 77.2,84.5 74.7,88 77.2,91.5 "/>
<polygon id="XMLID_47_" class="st0" points="89.4,88.5 91.9,84.5 89.4,80.5 84.5,80.5 82,84.5 84.5,88.5 "/>
<polygon id="XMLID_46_" class="st0" points="89.4,80.5 91.9,76 89.4,71.5 84.5,71.5 82,76 84.5,80.5 "/>
<polygon id="XMLID_45_" class="st0" points="96.7,75.5 99.2,71.5 96.7,67.5 91.8,67.5 89.3,71.5 91.8,75.5 "/>
<polygon id="XMLID_44_" class="st0" points="96.7,84.5 99.2,80 96.7,75.5 91.8,75.5 89.3,80 91.8,84.5 "/>
<polygon id="XMLID_43_" class="st0" points="104,80.5 106.5,76 104,71.5 99.1,71.5 96.6,76 99.1,80.5 "/>
<polygon id="XMLID_42_" class="st0" points="67.5,75.5 70,71.5 67.5,67.5 62.5,67.5 60.1,71.5 62.5,75.5 "/>
<polygon id="XMLID_41_" class="st0" points="74.8,71.5 77.3,67.5 74.8,63.5 69.8,63.5 67.4,67.5 69.8,71.5 "/>
<polygon id="XMLID_40_" class="st0" points="74.8,80.5 77.3,76 74.8,71.5 69.8,71.5 67.4,76 69.8,80.5 "/>
<polygon id="XMLID_39_" class="st0" points="82.1,75.5 84.6,71.5 82.1,67.5 77.2,67.5 74.7,71.5 77.2,75.5 "/>
<polygon id="XMLID_38_" class="st0" points="82.1,67.5 84.6,63.5 82.1,59.5 77.2,59.5 74.7,63.5 77.2,67.5 "/>
<polygon id="XMLID_37_" class="st0" points="89.4,63.5 91.9,59 89.4,54.5 84.5,54.5 82,59 84.5,63.5 "/>
<polygon id="XMLID_36_" class="st0" points="89.4,71.5 91.9,67.5 89.4,63.5 84.5,63.5 82,67.5 84.5,71.5 "/>
<polygon id="XMLID_35_" class="st0" points="96.7,67.5 99.2,63.5 96.7,59.5 91.8,59.5 89.3,63.5 91.8,67.5 "/>
<polygon id="XMLID_2_" class="st0" points="9,25.5 11.5,21 9,16.5 4,16.5 1.6,21 4,25.5 "/>
<polygon id="XMLID_4_" class="st0" points="16.3,20.5 18.8,17 16.3,13.5 11.4,13.5 8.9,17 11.4,20.5 "/>
<polygon id="XMLID_5_" class="st0" points="16.3,29.5 18.8,25 16.3,20.5 11.4,20.5 8.9,25 11.4,29.5 "/>
<polygon id="XMLID_6_" class="st0" points="23.6,25.5 26.1,21 23.6,16.5 18.7,16.5 16.2,21 18.7,25.5 "/>
<polygon id="XMLID_10_" class="st0" points="23.6,16.5 26.1,13 23.6,9.5 18.7,9.5 16.2,13 18.7,16.5 "/>
<polygon id="XMLID_9_" class="st0" points="30.9,13.5 33.4,9.5 30.9,5.5 26,5.5 23.5,9.5 26,13.5 "/>
<polygon id="XMLID_8_" class="st0" points="30.9,20.5 33.4,17 30.9,13.5 26,13.5 23.5,17 26,20.5 "/>
<polygon id="XMLID_7_" class="st0" points="38.2,16.5 40.7,13 38.2,9.5 33.3,9.5 30.8,13 33.3,16.5 "/>
<polygon id="XMLID_18_" class="st0" points="1.7,13.5 4.2,9.5 1.7,5.5 -3.3,5.5 -5.7,9.5 -3.3,13.5 "/>
<polygon id="XMLID_17_" class="st0" points="9,9.5 11.5,5 9,0.5 4,0.5 1.6,5 4,9.5 "/>
<polygon id="XMLID_16_" class="st0" points="9,16.5 11.5,13 9,9.5 4,9.5 1.6,13 4,16.5 "/>
<polygon id="XMLID_15_" class="st0" points="16.3,13.5 18.8,9.5 16.3,5.5 11.4,5.5 8.9,9.5 11.4,13.5 "/>
<polygon id="XMLID_12_" class="st0" points="23.6,9.5 26.1,5 23.6,0.5 18.7,0.5 16.2,5 18.7,9.5 "/>
<polygon id="XMLID_34_" class="st0" points="30.9,46.5 33.4,42.5 30.9,38.5 26,38.5 23.5,42.5 26,46.5 "/>
<polygon id="XMLID_33_" class="st0" points="38.2,42.5 40.7,38 38.2,33.5 33.3,33.5 30.8,38 33.3,42.5 "/>
<polygon id="XMLID_32_" class="st0" points="38.2,50.5 40.7,46.5 38.2,42.5 33.3,42.5 30.8,46.5 33.3,50.5 "/>
<polygon id="XMLID_31_" class="st0" points="45.5,46.5 48,42.5 45.5,38.5 40.6,38.5 38.1,42.5 40.6,46.5 "/>
<polygon id="XMLID_30_" class="st0" points="45.5,38.5 48,34 45.5,29.5 40.6,29.5 38.1,34 40.6,38.5 "/>
<polygon id="XMLID_29_" class="st0" points="52.9,33.5 55.3,29 52.9,24.5 47.9,24.5 45.4,29 47.9,33.5 "/>
<polygon id="XMLID_28_" class="st0" points="52.9,42.5 55.3,38 52.9,33.5 47.9,33.5 45.4,38 47.9,42.5 "/>
<polygon id="XMLID_27_" class="st0" points="60.2,38.5 62.6,34 60.2,29.5 55.2,29.5 52.7,34 55.2,38.5 "/>
<polygon id="XMLID_26_" class="st0" points="23.6,33.5 26.1,29 23.6,24.5 18.7,24.5 16.2,29 18.7,33.5 "/>
<polygon id="XMLID_25_" class="st0" points="30.9,29.5 33.4,25 30.9,20.5 26,20.5 23.5,25 26,29.5 "/>
<polygon id="XMLID_24_" class="st0" points="30.9,38.5 33.4,34 30.9,29.5 26,29.5 23.5,34 26,38.5 "/>
<polygon id="XMLID_23_" class="st0" points="38.2,33.5 40.7,29 38.2,24.5 33.3,24.5 30.8,29 33.3,33.5 "/>
<polygon id="XMLID_22_" class="st0" points="38.2,24.5 40.7,20.5 38.2,16.5 33.3,16.5 30.8,20.5 33.3,24.5 "/>
<polygon id="XMLID_21_" class="st0" points="45.5,20.5 48,17 45.5,13.5 40.6,13.5 38.1,17 40.6,20.5 "/>
<polygon id="XMLID_20_" class="st0" points="45.5,29.5 48,25 45.5,20.5 40.6,20.5 38.1,25 40.6,29.5 "/>
<polygon id="XMLID_19_" class="st0" points="52.9,24.5 55.3,20.5 52.9,16.5 47.9,16.5 45.4,20.5 47.9,24.5 "/>
</svg>
